%TF.GenerationSoftware,KiCad,Pcbnew,(6.0.0)*%
%TF.CreationDate,2022-03-26T00:04:54-07:00*%
%TF.ProjectId,madcatdb,6d616463-6174-4646-922e-6b696361645f,rev?*%
%TF.SameCoordinates,Original*%
%TF.FileFunction,Copper,L2,Bot*%
%TF.FilePolarity,Positive*%
%FSLAX46Y46*%
G04 Gerber Fmt 4.6, Leading zero omitted, Abs format (unit mm)*
G04 Created by KiCad (PCBNEW (6.0.0)) date 2022-03-26 00:04:54*
%MOMM*%
%LPD*%
G01*
G04 APERTURE LIST*
%TA.AperFunction,ComponentPad*%
%ADD10O,1.000000X2.100000*%
%TD*%
%TA.AperFunction,ComponentPad*%
%ADD11O,1.000000X1.600000*%
%TD*%
%TA.AperFunction,ComponentPad*%
%ADD12C,0.800000*%
%TD*%
%TA.AperFunction,ComponentPad*%
%ADD13C,6.000000*%
%TD*%
%TA.AperFunction,ViaPad*%
%ADD14C,0.800000*%
%TD*%
%TA.AperFunction,Conductor*%
%ADD15C,0.400000*%
%TD*%
%TA.AperFunction,Conductor*%
%ADD16C,0.600000*%
%TD*%
%TA.AperFunction,Conductor*%
%ADD17C,0.200000*%
%TD*%
G04 APERTURE END LIST*
D10*
%TO.P,J1,S1,SHIELD*%
%TO.N,Earth*%
X4320000Y-6780000D03*
D11*
X4320000Y-2600000D03*
D10*
X-4320000Y-6780000D03*
D11*
X-4320000Y-2600000D03*
%TD*%
D12*
%TO.P,H2,1,1*%
%TO.N,Earth*%
X12000000Y-5800000D03*
X9700000Y-3500000D03*
X12000000Y-1200000D03*
X13626346Y-5126346D03*
X10373654Y-5126346D03*
X10373654Y-1873654D03*
X13626346Y-1873654D03*
D13*
X12000000Y-3500000D03*
D12*
X14300000Y-3500000D03*
%TD*%
%TO.P,H1,*%
%TO.N,*%
X-24700000Y-3500000D03*
X-28626346Y-1873654D03*
X-28626346Y-5126346D03*
D13*
X-27000000Y-3500000D03*
D12*
X-27000000Y-5800000D03*
X-27000000Y-1200000D03*
X-25373654Y-5126346D03*
X-25373654Y-1873654D03*
X-29300000Y-3500000D03*
%TD*%
D14*
%TO.N,GND*%
X-20900000Y-1700000D03*
X-3600000Y-9000000D03*
X-8300000Y-6774874D03*
X7200000Y-7250000D03*
X3600000Y-9000000D03*
%TO.N,VBUS*%
X2450000Y-9000000D03*
X-6700000Y-9900000D03*
X-2450000Y-9000000D03*
%TO.N,+5V*%
X-13100000Y-6774874D03*
X-13100000Y-4874874D03*
%TO.N,Net-(J1-PadB5)*%
X400000Y-9650000D03*
X-1400000Y-9100000D03*
%TD*%
D15*
%TO.N,GND*%
X-6009189Y-9065685D02*
X-8300000Y-6774874D01*
X-3600000Y-9000000D02*
X-3724264Y-9124264D01*
X-2568629Y-7968629D02*
X-3600000Y-9000000D01*
X7200000Y-7250000D02*
X5450000Y-9000000D01*
X5450000Y-9000000D02*
X3600000Y-9000000D01*
X3600000Y-9000000D02*
X2568629Y-7968629D01*
X1437258Y-7500000D02*
X-1437258Y-7500000D01*
X-4148528Y-9300000D02*
X-5443503Y-9300000D01*
X-1437258Y-7500001D02*
G75*
G03*
X-2568629Y-7968629I0J-1600001D01*
G01*
X-6009189Y-9065685D02*
G75*
G03*
X-5443503Y-9300000I565689J565692D01*
G01*
X-3724264Y-9124264D02*
G75*
G02*
X-4148528Y-9300000I-424263J424260D01*
G01*
X1437258Y-7500001D02*
G75*
G02*
X2568629Y-7968629I0J-1600001D01*
G01*
D16*
%TO.N,Earth*%
X-4320000Y-6780000D02*
X-4320000Y-2600000D01*
X4320000Y-6780000D02*
X4320000Y-2600000D01*
D15*
%TO.N,VBUS*%
X1418629Y-8300000D02*
X-1418629Y-8300000D01*
X1984315Y-8534315D02*
X2450000Y-9000000D01*
X-2450000Y-9000000D02*
X-1984314Y-8534314D01*
X-2450000Y-9000000D02*
X-2998528Y-9548528D01*
X-6700000Y-9900000D02*
X-3847056Y-9900000D01*
X1984315Y-8534315D02*
G75*
G03*
X1418629Y-8300000I-565689J-565692D01*
G01*
X-1984314Y-8534314D02*
G75*
G02*
X-1418629Y-8300000I565685J-565686D01*
G01*
X-3847056Y-9900000D02*
G75*
G03*
X-2998528Y-9548528I-2J1200004D01*
G01*
%TO.N,+5V*%
X-13100000Y-6774874D02*
X-13100000Y-4874874D01*
D17*
%TO.N,Net-(J1-PadB5)*%
X84315Y-9334315D02*
X400000Y-9650000D01*
X-1400000Y-9100000D02*
X-481371Y-9100000D01*
X-481371Y-9100000D02*
G75*
G02*
X84315Y-9334315I2J-799995D01*
G01*
%TD*%
%TA.AperFunction,Conductor*%
%TO.N,GND*%
G36*
X-5884532Y-252450D02*
G01*
X-5856404Y-256905D01*
X-5807523Y-264647D01*
X-5748308Y-283887D01*
X-5692966Y-312086D01*
X-5642598Y-348681D01*
X-5598681Y-392598D01*
X-5562086Y-442966D01*
X-5533887Y-498308D01*
X-5514646Y-557525D01*
X-5502450Y-634532D01*
X-5500000Y-665661D01*
X-5500000Y-8500000D01*
X-3190695Y-8500000D01*
X-3104352Y-8519707D01*
X-3035111Y-8574926D01*
X-2996684Y-8654718D01*
X-2996684Y-8743282D01*
X-3006843Y-8775153D01*
X-3030051Y-8831183D01*
X-3035044Y-8843238D01*
X-3036746Y-8856169D01*
X-3036748Y-8856176D01*
X-3052823Y-8978274D01*
X-3083631Y-9061306D01*
X-3109406Y-9093013D01*
X-3248366Y-9231973D01*
X-3272105Y-9252248D01*
X-3285254Y-9261802D01*
X-3294459Y-9274472D01*
X-3300824Y-9280837D01*
X-3312299Y-9291445D01*
X-3365215Y-9336639D01*
X-3390476Y-9354992D01*
X-3468935Y-9403072D01*
X-3470737Y-9404176D01*
X-3498560Y-9418352D01*
X-3585530Y-9454376D01*
X-3615225Y-9464025D01*
X-3706762Y-9486002D01*
X-3737593Y-9490885D01*
X-3794808Y-9495388D01*
X-3806968Y-9496345D01*
X-3822580Y-9496958D01*
X-3831589Y-9496958D01*
X-3847057Y-9494508D01*
X-3862526Y-9496958D01*
X-3863107Y-9497050D01*
X-3894237Y-9499500D01*
X-6167961Y-9499500D01*
X-6254304Y-9479793D01*
X-6289099Y-9458381D01*
X-6397159Y-9375464D01*
X-6543238Y-9314956D01*
X-6700000Y-9294318D01*
X-6856762Y-9314956D01*
X-7002841Y-9375464D01*
X-7128282Y-9471718D01*
X-7224536Y-9597159D01*
X-7285044Y-9743238D01*
X-7305682Y-9900000D01*
X-7285044Y-10056762D01*
X-7224536Y-10202841D01*
X-7128282Y-10328282D01*
X-7043776Y-10393125D01*
X-6987275Y-10461319D01*
X-6965957Y-10547278D01*
X-6984046Y-10633975D01*
X-7037959Y-10704237D01*
X-7117020Y-10744149D01*
X-7164922Y-10750000D01*
X-22584339Y-10750000D01*
X-22615468Y-10747550D01*
X-22643596Y-10743095D01*
X-22692477Y-10735353D01*
X-22751692Y-10716113D01*
X-22807034Y-10687914D01*
X-22857402Y-10651319D01*
X-22901319Y-10607402D01*
X-22937914Y-10557034D01*
X-22966113Y-10501692D01*
X-22985354Y-10442475D01*
X-22987816Y-10426926D01*
X-22997550Y-10365468D01*
X-23000000Y-10334339D01*
X-23000000Y-6774874D01*
X-13705682Y-6774874D01*
X-13685044Y-6931636D01*
X-13624536Y-7077715D01*
X-13528282Y-7203156D01*
X-13402841Y-7299410D01*
X-13256762Y-7359918D01*
X-13100000Y-7380556D01*
X-12943238Y-7359918D01*
X-12797159Y-7299410D01*
X-12671718Y-7203156D01*
X-12575464Y-7077715D01*
X-12514956Y-6931636D01*
X-12494318Y-6774874D01*
X-12514956Y-6618112D01*
X-12575464Y-6472033D01*
X-12658379Y-6363976D01*
X-12695305Y-6283481D01*
X-12699500Y-6242835D01*
X-12699500Y-5406913D01*
X-12679793Y-5320570D01*
X-12658381Y-5285775D01*
X-12575464Y-5177715D01*
X-12514956Y-5031636D01*
X-12494318Y-4874874D01*
X-12514956Y-4718112D01*
X-12575464Y-4572033D01*
X-12671718Y-4446592D01*
X-12797159Y-4350338D01*
X-12943238Y-4289830D01*
X-13100000Y-4269192D01*
X-13256762Y-4289830D01*
X-13402841Y-4350338D01*
X-13528282Y-4446592D01*
X-13624536Y-4572033D01*
X-13685044Y-4718112D01*
X-13705682Y-4874874D01*
X-13685044Y-5031636D01*
X-13624536Y-5177715D01*
X-13541621Y-5285772D01*
X-13504695Y-5366267D01*
X-13500500Y-5406913D01*
X-13500500Y-6242835D01*
X-13520207Y-6329178D01*
X-13541619Y-6363973D01*
X-13624536Y-6472033D01*
X-13685044Y-6618112D01*
X-13705682Y-6774874D01*
X-23000000Y-6774874D01*
X-23000000Y-665661D01*
X-22997550Y-634532D01*
X-22985354Y-557525D01*
X-22966113Y-498308D01*
X-22937914Y-442966D01*
X-22901319Y-392598D01*
X-22857402Y-348681D01*
X-22807034Y-312086D01*
X-22751692Y-283887D01*
X-22692477Y-264647D01*
X-22643596Y-256905D01*
X-22615468Y-252450D01*
X-22584339Y-250000D01*
X-5915661Y-250000D01*
X-5884532Y-252450D01*
G37*
%TD.AperFunction*%
%TA.AperFunction,Conductor*%
G36*
X7615468Y-252450D02*
G01*
X7643596Y-256905D01*
X7692477Y-264647D01*
X7751692Y-283887D01*
X7807034Y-312086D01*
X7857402Y-348681D01*
X7901319Y-392598D01*
X7937914Y-442966D01*
X7966113Y-498308D01*
X7985354Y-557525D01*
X7997550Y-634532D01*
X8000000Y-665661D01*
X8000000Y-10334339D01*
X7997550Y-10365468D01*
X7987817Y-10426926D01*
X7985354Y-10442475D01*
X7966113Y-10501692D01*
X7937914Y-10557034D01*
X7901319Y-10607402D01*
X7857402Y-10651319D01*
X7807034Y-10687914D01*
X7751692Y-10716113D01*
X7692477Y-10735353D01*
X7643596Y-10743095D01*
X7615468Y-10747550D01*
X7584339Y-10750000D01*
X-6235078Y-10750000D01*
X-6321421Y-10730293D01*
X-6390662Y-10675074D01*
X-6429089Y-10595282D01*
X-6429089Y-10506718D01*
X-6390662Y-10426926D01*
X-6356227Y-10393128D01*
X-6289102Y-10341621D01*
X-6208606Y-10304695D01*
X-6167961Y-10300500D01*
X-3894235Y-10300500D01*
X-3863105Y-10302950D01*
X-3847055Y-10305492D01*
X-3831586Y-10303042D01*
X-3828375Y-10303042D01*
X-3821178Y-10302238D01*
X-3681786Y-10293102D01*
X-3644198Y-10290638D01*
X-3644197Y-10290638D01*
X-3637700Y-10290212D01*
X-3431927Y-10249281D01*
X-3389986Y-10235044D01*
X-3375281Y-10230052D01*
X-3233257Y-10181841D01*
X-3227422Y-10178963D01*
X-3227416Y-10178961D01*
X-3050931Y-10091928D01*
X-3050930Y-10091928D01*
X-3045089Y-10089047D01*
X-3014806Y-10068813D01*
X-2876058Y-9976104D01*
X-2870643Y-9972486D01*
X-2732405Y-9851255D01*
X-2726750Y-9846737D01*
X-2724473Y-9844460D01*
X-2711802Y-9835254D01*
X-2702248Y-9822105D01*
X-2681973Y-9798366D01*
X-2543013Y-9659406D01*
X-2468025Y-9612287D01*
X-2428274Y-9602823D01*
X-2306176Y-9586748D01*
X-2306171Y-9586747D01*
X-2293238Y-9585044D01*
X-2147159Y-9524536D01*
X-2105938Y-9492906D01*
X-2025442Y-9455981D01*
X-1936894Y-9457638D01*
X-1857834Y-9497550D01*
X-1844084Y-9510072D01*
X-1836223Y-9517933D01*
X-1828282Y-9528282D01*
X-1702841Y-9624536D01*
X-1556762Y-9685044D01*
X-1400000Y-9705682D01*
X-1243238Y-9685044D01*
X-1097159Y-9624536D01*
X-971718Y-9528282D01*
X-933408Y-9478355D01*
X-865212Y-9421853D01*
X-775532Y-9400500D01*
X-525074Y-9400500D01*
X-506634Y-9402113D01*
X-498513Y-9402113D01*
X-481370Y-9405136D01*
X-466525Y-9402519D01*
X-455267Y-9403072D01*
X-403428Y-9408177D01*
X-365171Y-9415786D01*
X-343720Y-9422293D01*
X-266819Y-9466216D01*
X-216588Y-9539157D01*
X-202980Y-9626669D01*
X-203979Y-9636571D01*
X-203979Y-9637065D01*
X-205682Y-9650000D01*
X-203980Y-9662928D01*
X-203980Y-9662930D01*
X-200844Y-9686746D01*
X-185044Y-9806762D01*
X-124536Y-9952841D01*
X-28282Y-10078282D01*
X97159Y-10174536D01*
X243238Y-10235044D01*
X400000Y-10255682D01*
X556762Y-10235044D01*
X702841Y-10174536D01*
X828282Y-10078282D01*
X924536Y-9952841D01*
X985044Y-9806762D01*
X1005682Y-9650000D01*
X985044Y-9493238D01*
X924536Y-9347159D01*
X828282Y-9221718D01*
X702841Y-9125464D01*
X639537Y-9099242D01*
X601174Y-9083352D01*
X528945Y-9032103D01*
X486105Y-8954590D01*
X481140Y-8866166D01*
X515032Y-8784344D01*
X581068Y-8725330D01*
X666170Y-8700813D01*
X677328Y-8700500D01*
X1371447Y-8700500D01*
X1402576Y-8702950D01*
X1418627Y-8705492D01*
X1431403Y-8703469D01*
X1450870Y-8704745D01*
X1496050Y-8710693D01*
X1546228Y-8724138D01*
X1594177Y-8743999D01*
X1639163Y-8769972D01*
X1675326Y-8797720D01*
X1689988Y-8810578D01*
X1697590Y-8821042D01*
X1710739Y-8830596D01*
X1734478Y-8850871D01*
X1790594Y-8906987D01*
X1837713Y-8981975D01*
X1847177Y-9021726D01*
X1863252Y-9143824D01*
X1863253Y-9143829D01*
X1864956Y-9156762D01*
X1925464Y-9302841D01*
X2021718Y-9428282D01*
X2147159Y-9524536D01*
X2293238Y-9585044D01*
X2450000Y-9605682D01*
X2606762Y-9585044D01*
X2752841Y-9524536D01*
X2878282Y-9428282D01*
X2974536Y-9302841D01*
X3035044Y-9156762D01*
X3055682Y-9000000D01*
X3035044Y-8843238D01*
X3030051Y-8831183D01*
X3006843Y-8775153D01*
X2992008Y-8687841D01*
X3016526Y-8602739D01*
X3075540Y-8536703D01*
X3157362Y-8502812D01*
X3190695Y-8500000D01*
X5500000Y-8500000D01*
X5500000Y-665661D01*
X5502450Y-634532D01*
X5514646Y-557525D01*
X5533887Y-498308D01*
X5562086Y-442966D01*
X5598681Y-392598D01*
X5642598Y-348681D01*
X5692966Y-312086D01*
X5748308Y-283887D01*
X5807523Y-264647D01*
X5856404Y-256905D01*
X5884532Y-252450D01*
X5915661Y-250000D01*
X7584339Y-250000D01*
X7615468Y-252450D01*
G37*
%TD.AperFunction*%
%TD*%
%TA.AperFunction,Conductor*%
%TO.N,Earth*%
G36*
X3865468Y-252450D02*
G01*
X3893596Y-256905D01*
X3942477Y-264647D01*
X4001692Y-283887D01*
X4057034Y-312086D01*
X4107402Y-348681D01*
X4151319Y-392598D01*
X4187914Y-442966D01*
X4216113Y-498308D01*
X4235354Y-557525D01*
X4247550Y-634532D01*
X4250000Y-665661D01*
X4250000Y-1233626D01*
X4230293Y-1319969D01*
X4175074Y-1389210D01*
X4092376Y-1428277D01*
X4050553Y-1437167D01*
X4030827Y-1443576D01*
X3877050Y-1512042D01*
X3859082Y-1522416D01*
X3722908Y-1621352D01*
X3707485Y-1635239D01*
X3594854Y-1760328D01*
X3582657Y-1777117D01*
X3498500Y-1922882D01*
X3490056Y-1941845D01*
X3438040Y-2101932D01*
X3433728Y-2122218D01*
X3420544Y-2247661D01*
X3420000Y-2258040D01*
X3420000Y-2377577D01*
X3424330Y-2396547D01*
X3431500Y-2400000D01*
X4250000Y-2400000D01*
X4250000Y-2800000D01*
X3442423Y-2800000D01*
X3423453Y-2804330D01*
X3420000Y-2811500D01*
X3420000Y-2941960D01*
X3420544Y-2952339D01*
X3433728Y-3077782D01*
X3438040Y-3098068D01*
X3490056Y-3258155D01*
X3498500Y-3277118D01*
X3582657Y-3422883D01*
X3594854Y-3439672D01*
X3707487Y-3564764D01*
X3722903Y-3578644D01*
X3859085Y-3677587D01*
X3877047Y-3687957D01*
X4030827Y-3756424D01*
X4050553Y-3762833D01*
X4092376Y-3771723D01*
X4172734Y-3808952D01*
X4228982Y-3877360D01*
X4250000Y-3966374D01*
X4250000Y-4584339D01*
X4247550Y-4615468D01*
X4235354Y-4692475D01*
X4216113Y-4751692D01*
X4187914Y-4807034D01*
X4151319Y-4857402D01*
X4107402Y-4901319D01*
X4057034Y-4937914D01*
X4001692Y-4966113D01*
X3942477Y-4985353D01*
X3893596Y-4993095D01*
X3865468Y-4997550D01*
X3834339Y-5000000D01*
X-3834339Y-5000000D01*
X-3865468Y-4997550D01*
X-3893596Y-4993095D01*
X-3942477Y-4985353D01*
X-4001692Y-4966113D01*
X-4057034Y-4937914D01*
X-4107402Y-4901319D01*
X-4151319Y-4857402D01*
X-4187914Y-4807034D01*
X-4216113Y-4751692D01*
X-4235354Y-4692475D01*
X-4247550Y-4615468D01*
X-4250000Y-4584339D01*
X-4250000Y-3966374D01*
X-4230293Y-3880031D01*
X-4175074Y-3810790D01*
X-4092376Y-3771723D01*
X-4050553Y-3762833D01*
X-4030827Y-3756424D01*
X-3877050Y-3687958D01*
X-3859082Y-3677584D01*
X-3722908Y-3578648D01*
X-3707485Y-3564761D01*
X-3594854Y-3439672D01*
X-3582657Y-3422883D01*
X-3498500Y-3277118D01*
X-3490056Y-3258155D01*
X-3438040Y-3098068D01*
X-3433728Y-3077782D01*
X-3420544Y-2952339D01*
X-3420000Y-2941960D01*
X-3420000Y-2822423D01*
X-3424330Y-2803453D01*
X-3431500Y-2800000D01*
X-4250000Y-2800000D01*
X-4250000Y-2400000D01*
X-3442423Y-2400000D01*
X-3423453Y-2395670D01*
X-3420000Y-2388500D01*
X-3420000Y-2258040D01*
X-3420544Y-2247661D01*
X-3433728Y-2122218D01*
X-3438040Y-2101932D01*
X-3490056Y-1941845D01*
X-3498500Y-1922882D01*
X-3582657Y-1777117D01*
X-3594854Y-1760328D01*
X-3707487Y-1635236D01*
X-3722903Y-1621356D01*
X-3859085Y-1522413D01*
X-3877047Y-1512043D01*
X-4030827Y-1443576D01*
X-4050553Y-1437167D01*
X-4092376Y-1428277D01*
X-4172734Y-1391048D01*
X-4228982Y-1322640D01*
X-4250000Y-1233626D01*
X-4250000Y-665661D01*
X-4247550Y-634532D01*
X-4235354Y-557525D01*
X-4216113Y-498308D01*
X-4187914Y-442966D01*
X-4151319Y-392598D01*
X-4107402Y-348681D01*
X-4057034Y-312086D01*
X-4001692Y-283887D01*
X-3942477Y-264647D01*
X-3893596Y-256905D01*
X-3865468Y-252450D01*
X-3834339Y-250000D01*
X3834339Y-250000D01*
X3865468Y-252450D01*
G37*
%TD.AperFunction*%
%TD*%
M02*
