%TF.GenerationSoftware,KiCad,Pcbnew,(6.0.0)*%
%TF.CreationDate,2022-04-07T05:35:00-07:00*%
%TF.ProjectId,madcatdb,6d616463-6174-4646-922e-6b696361645f,rev?*%
%TF.SameCoordinates,Original*%
%TF.FileFunction,Copper,L2,Bot*%
%TF.FilePolarity,Positive*%
%FSLAX46Y46*%
G04 Gerber Fmt 4.6, Leading zero omitted, Abs format (unit mm)*
G04 Created by KiCad (PCBNEW (6.0.0)) date 2022-04-07 05:35:00*
%MOMM*%
%LPD*%
G01*
G04 APERTURE LIST*
%TA.AperFunction,ComponentPad*%
%ADD10O,1.000000X1.600000*%
%TD*%
%TA.AperFunction,ComponentPad*%
%ADD11O,1.000000X2.100000*%
%TD*%
%TA.AperFunction,ComponentPad*%
%ADD12C,0.800000*%
%TD*%
%TA.AperFunction,ComponentPad*%
%ADD13C,6.000000*%
%TD*%
%TA.AperFunction,ViaPad*%
%ADD14C,0.800000*%
%TD*%
%TA.AperFunction,Conductor*%
%ADD15C,0.400000*%
%TD*%
%TA.AperFunction,Conductor*%
%ADD16C,0.200000*%
%TD*%
G04 APERTURE END LIST*
D10*
%TO.P,J1,S1,SHIELD*%
%TO.N,Earth*%
X24180000Y-2600000D03*
X32820000Y-2600000D03*
D11*
X32820000Y-6780000D03*
X24180000Y-6780000D03*
%TD*%
D12*
%TO.P,H2,1,1*%
%TO.N,Earth*%
X40500000Y-5800000D03*
X38200000Y-3500000D03*
X40500000Y-1200000D03*
X42126346Y-5126346D03*
X38873654Y-5126346D03*
X38873654Y-1873654D03*
X42126346Y-1873654D03*
D13*
X40500000Y-3500000D03*
D12*
X42800000Y-3500000D03*
%TD*%
%TO.P,H1,*%
%TO.N,*%
X5800000Y-3500000D03*
X1873654Y-1873654D03*
X1873654Y-5126346D03*
D13*
X3500000Y-3500000D03*
D12*
X3500000Y-5800000D03*
X3500000Y-1200000D03*
X5126346Y-5126346D03*
X5126346Y-1873654D03*
X1200000Y-3500000D03*
%TD*%
D14*
%TO.N,GND*%
X24900000Y-9000000D03*
X14400000Y-1700000D03*
X35700000Y-7250000D03*
X32100000Y-9000000D03*
X18900000Y-3825000D03*
%TO.N,Earth*%
X28500000Y-1100000D03*
%TO.N,VBUS*%
X30950000Y-9000000D03*
X26050000Y-9000000D03*
X23000000Y-9900000D03*
%TO.N,Net-(J1-PadB5)*%
X28900000Y-9650000D03*
X27100000Y-9100000D03*
%TD*%
D15*
%TO.N,GND*%
X25931371Y-7968629D02*
X24900000Y-9000000D01*
X35700000Y-7250000D02*
X34418629Y-8531371D01*
X33287258Y-9000000D02*
X32100000Y-9000000D01*
X32100000Y-9000000D02*
X31068629Y-7968629D01*
X24900000Y-9000000D02*
X24800000Y-9100000D01*
X29937258Y-7500000D02*
X27062742Y-7500000D01*
X27062742Y-7500001D02*
G75*
G03*
X25931371Y-7968629I0J-1600001D01*
G01*
X33287258Y-8999999D02*
G75*
G03*
X34418629Y-8531371I0J1600001D01*
G01*
X29937258Y-7500001D02*
G75*
G02*
X31068629Y-7968629I0J-1600001D01*
G01*
%TO.N,Earth*%
X32819127Y-4799522D02*
X24179127Y-4799522D01*
X24180000Y-6780000D02*
X24180000Y-2600000D01*
X32820000Y-6780000D02*
X32820000Y-2600000D01*
%TO.N,VBUS*%
X24652944Y-9900000D02*
X23000000Y-9900000D01*
X29918629Y-8300000D02*
X27081371Y-8300000D01*
X30484315Y-8534315D02*
X30950000Y-9000000D01*
X26050000Y-9000000D02*
X26515686Y-8534314D01*
X26050000Y-9000000D02*
X25501472Y-9548528D01*
X30484315Y-8534315D02*
G75*
G03*
X29918629Y-8300000I-565689J-565692D01*
G01*
X26515686Y-8534314D02*
G75*
G02*
X27081371Y-8300000I565685J-565686D01*
G01*
X24652944Y-9900000D02*
G75*
G03*
X25501472Y-9548528I-2J1200004D01*
G01*
D16*
%TO.N,Net-(J1-PadB5)*%
X27935786Y-9100000D02*
X27100000Y-9100000D01*
X28900000Y-9650000D02*
X28642893Y-9392893D01*
X27935786Y-9100001D02*
G75*
G02*
X28642892Y-9392894I3J-999993D01*
G01*
%TD*%
%TA.AperFunction,Conductor*%
%TO.N,Earth*%
G36*
X32262930Y-251703D02*
G01*
X32353438Y-263619D01*
X32403615Y-277064D01*
X32475794Y-306961D01*
X32520785Y-332936D01*
X32582772Y-380501D01*
X32619499Y-417228D01*
X32667064Y-479215D01*
X32693039Y-524206D01*
X32722936Y-596385D01*
X32736381Y-646562D01*
X32748297Y-737070D01*
X32750000Y-763046D01*
X32750000Y-1233626D01*
X32730293Y-1319969D01*
X32675074Y-1389210D01*
X32592376Y-1428277D01*
X32550553Y-1437167D01*
X32530827Y-1443576D01*
X32377050Y-1512042D01*
X32359082Y-1522416D01*
X32222908Y-1621352D01*
X32207485Y-1635239D01*
X32094854Y-1760328D01*
X32082657Y-1777117D01*
X31998500Y-1922882D01*
X31990056Y-1941845D01*
X31938040Y-2101932D01*
X31933728Y-2122218D01*
X31920544Y-2247661D01*
X31920000Y-2258040D01*
X31920000Y-2377577D01*
X31924330Y-2396547D01*
X31931500Y-2400000D01*
X32750000Y-2400000D01*
X32750000Y-2800000D01*
X31942423Y-2800000D01*
X31923453Y-2804330D01*
X31920000Y-2811500D01*
X31920000Y-2941960D01*
X31920544Y-2952339D01*
X31933728Y-3077782D01*
X31938040Y-3098068D01*
X31990056Y-3258155D01*
X31998500Y-3277118D01*
X32082657Y-3422883D01*
X32094854Y-3439672D01*
X32207487Y-3564764D01*
X32222903Y-3578644D01*
X32359085Y-3677587D01*
X32377047Y-3687957D01*
X32530827Y-3756424D01*
X32550553Y-3762833D01*
X32592376Y-3771723D01*
X32672734Y-3808952D01*
X32728982Y-3877360D01*
X32750000Y-3966374D01*
X32750000Y-4486954D01*
X32748297Y-4512930D01*
X32736381Y-4603438D01*
X32722936Y-4653615D01*
X32693039Y-4725794D01*
X32667064Y-4770785D01*
X32619499Y-4832772D01*
X32582772Y-4869499D01*
X32520785Y-4917064D01*
X32475794Y-4943039D01*
X32403615Y-4972936D01*
X32353438Y-4986381D01*
X32262930Y-4998297D01*
X32236954Y-5000000D01*
X24763046Y-5000000D01*
X24737070Y-4998297D01*
X24646562Y-4986381D01*
X24596385Y-4972936D01*
X24524206Y-4943039D01*
X24479215Y-4917064D01*
X24417228Y-4869499D01*
X24380501Y-4832772D01*
X24332936Y-4770785D01*
X24306961Y-4725794D01*
X24277064Y-4653615D01*
X24263619Y-4603438D01*
X24251703Y-4512930D01*
X24250000Y-4486954D01*
X24250000Y-3966374D01*
X24269707Y-3880031D01*
X24324926Y-3810790D01*
X24407624Y-3771723D01*
X24449447Y-3762833D01*
X24469173Y-3756424D01*
X24622950Y-3687958D01*
X24640918Y-3677584D01*
X24777092Y-3578648D01*
X24792515Y-3564761D01*
X24905146Y-3439672D01*
X24917343Y-3422883D01*
X25001500Y-3277118D01*
X25009944Y-3258155D01*
X25061960Y-3098068D01*
X25066272Y-3077782D01*
X25079456Y-2952339D01*
X25080000Y-2941960D01*
X25080000Y-2822423D01*
X25075670Y-2803453D01*
X25068500Y-2800000D01*
X24250000Y-2800000D01*
X24250000Y-2400000D01*
X25057577Y-2400000D01*
X25076547Y-2395670D01*
X25080000Y-2388500D01*
X25080000Y-2258040D01*
X25079456Y-2247661D01*
X25066272Y-2122218D01*
X25061960Y-2101932D01*
X25009944Y-1941845D01*
X25001500Y-1922882D01*
X24917343Y-1777117D01*
X24905146Y-1760328D01*
X24792513Y-1635236D01*
X24777097Y-1621356D01*
X24640915Y-1522413D01*
X24622953Y-1512043D01*
X24469173Y-1443576D01*
X24449447Y-1437167D01*
X24407624Y-1428277D01*
X24327266Y-1391048D01*
X24271018Y-1322640D01*
X24250000Y-1233626D01*
X24250000Y-763046D01*
X24251703Y-737070D01*
X24263619Y-646562D01*
X24277064Y-596385D01*
X24306961Y-524206D01*
X24332936Y-479215D01*
X24380501Y-417228D01*
X24417228Y-380501D01*
X24479215Y-332936D01*
X24524206Y-306961D01*
X24596385Y-277064D01*
X24646562Y-263619D01*
X24737070Y-251703D01*
X24763046Y-250000D01*
X32236954Y-250000D01*
X32262930Y-251703D01*
G37*
%TD.AperFunction*%
%TD*%
%TA.AperFunction,Conductor*%
%TO.N,GND*%
G36*
X22509684Y-201275D02*
G01*
X22609963Y-214477D01*
X22647529Y-224542D01*
X22731878Y-259481D01*
X22765560Y-278926D01*
X22837994Y-334508D01*
X22865492Y-362006D01*
X22921074Y-434440D01*
X22940520Y-468123D01*
X22975457Y-552468D01*
X22985524Y-590040D01*
X22998725Y-690315D01*
X23000000Y-709763D01*
X23000000Y-8500000D01*
X25384136Y-8500000D01*
X25458636Y-8519962D01*
X25513174Y-8574500D01*
X25533136Y-8649000D01*
X25521794Y-8706018D01*
X25464956Y-8843238D01*
X25463682Y-8852917D01*
X25463681Y-8852920D01*
X25444963Y-8995100D01*
X25415448Y-9066357D01*
X25402597Y-9081010D01*
X25248849Y-9234758D01*
X25231079Y-9249936D01*
X25214746Y-9261802D01*
X25207852Y-9271291D01*
X25199561Y-9279582D01*
X25199217Y-9279238D01*
X25188806Y-9290501D01*
X25131797Y-9339191D01*
X25112882Y-9352934D01*
X25025905Y-9406233D01*
X25005074Y-9416846D01*
X24910838Y-9455881D01*
X24888604Y-9463106D01*
X24839008Y-9475013D01*
X24789416Y-9486919D01*
X24766323Y-9490577D01*
X24691581Y-9496459D01*
X24676252Y-9495857D01*
X24676252Y-9496342D01*
X24664522Y-9496342D01*
X24652943Y-9494508D01*
X24633002Y-9497666D01*
X24609696Y-9499500D01*
X23515067Y-9499500D01*
X23440567Y-9479538D01*
X23424362Y-9468710D01*
X23310590Y-9381410D01*
X23302841Y-9375464D01*
X23215271Y-9339191D01*
X23165784Y-9318693D01*
X23156762Y-9314956D01*
X23147081Y-9313681D01*
X23147079Y-9313681D01*
X23009685Y-9295593D01*
X23000000Y-9294318D01*
X22990315Y-9295593D01*
X22852921Y-9313681D01*
X22852919Y-9313681D01*
X22843238Y-9314956D01*
X22834216Y-9318693D01*
X22784730Y-9339191D01*
X22697159Y-9375464D01*
X22571718Y-9471718D01*
X22475464Y-9597159D01*
X22471726Y-9606182D01*
X22471726Y-9606183D01*
X22449565Y-9659685D01*
X22414956Y-9743238D01*
X22413681Y-9752919D01*
X22413681Y-9752921D01*
X22406593Y-9806762D01*
X22394318Y-9900000D01*
X22395593Y-9909685D01*
X22400087Y-9943817D01*
X22414956Y-10056762D01*
X22418693Y-10065784D01*
X22466766Y-10181841D01*
X22475464Y-10202841D01*
X22571718Y-10328282D01*
X22697159Y-10424536D01*
X22843238Y-10485044D01*
X22852919Y-10486319D01*
X22852921Y-10486319D01*
X22981717Y-10503275D01*
X22998186Y-10510097D01*
X23018283Y-10503275D01*
X23147079Y-10486319D01*
X23147081Y-10486319D01*
X23156762Y-10485044D01*
X23302841Y-10424536D01*
X23424362Y-10331290D01*
X23495619Y-10301775D01*
X23515067Y-10300500D01*
X24609698Y-10300500D01*
X24633004Y-10302334D01*
X24652945Y-10305492D01*
X24664524Y-10303658D01*
X24665172Y-10303658D01*
X24676549Y-10302387D01*
X24857438Y-10290531D01*
X24857443Y-10290530D01*
X24862300Y-10290212D01*
X24867072Y-10289263D01*
X24867078Y-10289262D01*
X25063287Y-10250233D01*
X25068073Y-10249281D01*
X25266743Y-10181841D01*
X25271116Y-10179685D01*
X25271122Y-10179682D01*
X25355977Y-10137836D01*
X25454911Y-10089047D01*
X25629357Y-9972486D01*
X25712012Y-9900000D01*
X25769315Y-9849747D01*
X25778254Y-9842603D01*
X25778708Y-9842149D01*
X25788198Y-9835254D01*
X25800064Y-9818921D01*
X25815242Y-9801151D01*
X25968990Y-9647403D01*
X26035785Y-9608839D01*
X26054900Y-9605037D01*
X26197080Y-9586319D01*
X26197083Y-9586318D01*
X26206762Y-9585044D01*
X26215784Y-9581307D01*
X26343817Y-9528274D01*
X26343818Y-9528274D01*
X26352841Y-9524536D01*
X26389584Y-9496342D01*
X26433527Y-9462624D01*
X26504784Y-9433109D01*
X26581252Y-9443176D01*
X26642441Y-9490128D01*
X26659235Y-9512014D01*
X26671718Y-9528282D01*
X26797159Y-9624536D01*
X26806182Y-9628274D01*
X26806183Y-9628274D01*
X26858634Y-9650000D01*
X26943238Y-9685044D01*
X26952919Y-9686319D01*
X26952921Y-9686319D01*
X27090315Y-9704407D01*
X27100000Y-9705682D01*
X27109685Y-9704407D01*
X27247079Y-9686319D01*
X27247081Y-9686319D01*
X27256762Y-9685044D01*
X27341366Y-9650000D01*
X27393817Y-9628274D01*
X27393818Y-9628274D01*
X27402841Y-9624536D01*
X27528282Y-9528282D01*
X27581601Y-9458795D01*
X27642791Y-9411842D01*
X27699811Y-9400500D01*
X27896461Y-9400500D01*
X27922335Y-9402764D01*
X27922947Y-9402872D01*
X27935787Y-9405136D01*
X27948626Y-9402872D01*
X27952538Y-9402872D01*
X27967142Y-9403589D01*
X28057649Y-9412503D01*
X28086297Y-9418202D01*
X28189427Y-9449486D01*
X28216416Y-9460665D01*
X28221540Y-9463404D01*
X28277832Y-9516130D01*
X28300219Y-9589938D01*
X28299024Y-9614251D01*
X28294318Y-9650000D01*
X28314956Y-9806762D01*
X28318693Y-9815784D01*
X28353577Y-9900000D01*
X28375464Y-9952841D01*
X28471718Y-10078282D01*
X28597159Y-10174536D01*
X28606182Y-10178274D01*
X28606183Y-10178274D01*
X28614795Y-10181841D01*
X28743238Y-10235044D01*
X28752919Y-10236319D01*
X28752921Y-10236319D01*
X28890315Y-10254407D01*
X28900000Y-10255682D01*
X28909685Y-10254407D01*
X29047079Y-10236319D01*
X29047081Y-10236319D01*
X29056762Y-10235044D01*
X29185205Y-10181841D01*
X29193817Y-10178274D01*
X29193818Y-10178274D01*
X29202841Y-10174536D01*
X29328282Y-10078282D01*
X29424536Y-9952841D01*
X29446424Y-9900000D01*
X29481307Y-9815784D01*
X29485044Y-9806762D01*
X29505682Y-9650000D01*
X29500263Y-9608839D01*
X29486319Y-9502921D01*
X29486319Y-9502919D01*
X29485044Y-9493238D01*
X29452198Y-9413941D01*
X29428274Y-9356183D01*
X29428274Y-9356182D01*
X29424536Y-9347159D01*
X29328282Y-9221718D01*
X29202841Y-9125464D01*
X29068119Y-9069660D01*
X29065784Y-9068693D01*
X29056762Y-9064956D01*
X29047081Y-9063681D01*
X29047079Y-9063681D01*
X28909685Y-9045593D01*
X28900000Y-9044318D01*
X28789384Y-9058881D01*
X28712916Y-9048814D01*
X28692090Y-9038203D01*
X28591469Y-8976542D01*
X28538379Y-8920596D01*
X28520374Y-8845599D01*
X28542280Y-8771647D01*
X28598227Y-8718556D01*
X28669323Y-8700500D01*
X29875379Y-8700500D01*
X29898688Y-8702334D01*
X29907047Y-8703658D01*
X29907048Y-8703658D01*
X29918627Y-8705492D01*
X29930207Y-8703658D01*
X29932850Y-8703658D01*
X29952298Y-8704933D01*
X30002575Y-8711552D01*
X30040148Y-8721619D01*
X30100258Y-8746518D01*
X30133942Y-8765966D01*
X30174181Y-8796842D01*
X30188833Y-8809691D01*
X30190698Y-8811556D01*
X30197590Y-8821042D01*
X30213923Y-8832908D01*
X30231693Y-8848086D01*
X30302597Y-8918990D01*
X30341161Y-8985785D01*
X30344963Y-9004900D01*
X30360836Y-9125464D01*
X30364956Y-9156762D01*
X30368693Y-9165784D01*
X30420353Y-9290501D01*
X30425464Y-9302841D01*
X30521718Y-9428282D01*
X30647159Y-9524536D01*
X30656182Y-9528274D01*
X30656183Y-9528274D01*
X30784216Y-9581307D01*
X30793238Y-9585044D01*
X30802919Y-9586319D01*
X30802921Y-9586319D01*
X30940315Y-9604407D01*
X30950000Y-9605682D01*
X30959685Y-9604407D01*
X31097079Y-9586319D01*
X31097081Y-9586319D01*
X31106762Y-9585044D01*
X31115784Y-9581307D01*
X31243817Y-9528274D01*
X31243818Y-9528274D01*
X31252841Y-9524536D01*
X31378282Y-9428282D01*
X31474536Y-9302841D01*
X31479648Y-9290501D01*
X31531307Y-9165784D01*
X31535044Y-9156762D01*
X31539165Y-9125464D01*
X31554407Y-9009685D01*
X31555682Y-9000000D01*
X31535044Y-8843238D01*
X31478206Y-8706019D01*
X31468139Y-8629552D01*
X31497654Y-8558295D01*
X31558844Y-8511342D01*
X31615864Y-8500000D01*
X34000000Y-8500000D01*
X34000000Y-709763D01*
X34001275Y-690315D01*
X34014476Y-590040D01*
X34024543Y-552468D01*
X34059480Y-468123D01*
X34078926Y-434440D01*
X34134508Y-362006D01*
X34162006Y-334508D01*
X34234440Y-278926D01*
X34268122Y-259481D01*
X34352471Y-224542D01*
X34390037Y-214477D01*
X34490316Y-201275D01*
X34509763Y-200000D01*
X35990237Y-200000D01*
X36009684Y-201275D01*
X36109963Y-214477D01*
X36147529Y-224542D01*
X36231878Y-259481D01*
X36265560Y-278926D01*
X36337994Y-334508D01*
X36365492Y-362006D01*
X36421074Y-434440D01*
X36440520Y-468123D01*
X36475457Y-552468D01*
X36485524Y-590040D01*
X36498725Y-690315D01*
X36500000Y-709763D01*
X36500000Y-10290237D01*
X36498725Y-10309685D01*
X36485524Y-10409960D01*
X36475458Y-10447529D01*
X36440520Y-10531877D01*
X36421074Y-10565560D01*
X36365494Y-10637992D01*
X36337994Y-10665492D01*
X36265560Y-10721074D01*
X36231878Y-10740519D01*
X36147529Y-10775458D01*
X36109963Y-10785523D01*
X36009685Y-10798725D01*
X35990237Y-10800000D01*
X23037731Y-10800000D01*
X23005579Y-10791385D01*
X22962269Y-10800000D01*
X8009763Y-10800000D01*
X7990315Y-10798725D01*
X7890037Y-10785523D01*
X7852471Y-10775458D01*
X7768122Y-10740519D01*
X7734440Y-10721074D01*
X7662006Y-10665492D01*
X7634506Y-10637992D01*
X7578926Y-10565560D01*
X7559480Y-10531877D01*
X7524542Y-10447529D01*
X7514476Y-10409960D01*
X7501275Y-10309685D01*
X7500000Y-10290237D01*
X7500000Y-709763D01*
X7501275Y-690315D01*
X7514476Y-590040D01*
X7524543Y-552468D01*
X7559480Y-468123D01*
X7578926Y-434440D01*
X7634508Y-362006D01*
X7662006Y-334508D01*
X7734440Y-278926D01*
X7768122Y-259481D01*
X7852471Y-224542D01*
X7890037Y-214477D01*
X7990316Y-201275D01*
X8009763Y-200000D01*
X22490237Y-200000D01*
X22509684Y-201275D01*
G37*
%TD.AperFunction*%
%TD*%
M02*
