%TF.GenerationSoftware,KiCad,Pcbnew,(6.0.0)*%
%TF.CreationDate,2022-04-07T05:35:00-07:00*%
%TF.ProjectId,madcatdb,6d616463-6174-4646-922e-6b696361645f,rev?*%
%TF.SameCoordinates,Original*%
%TF.FileFunction,Legend,Top*%
%TF.FilePolarity,Positive*%
%FSLAX46Y46*%
G04 Gerber Fmt 4.6, Leading zero omitted, Abs format (unit mm)*
G04 Created by KiCad (PCBNEW (6.0.0)) date 2022-04-07 05:35:00*
%MOMM*%
%LPD*%
G01*
G04 APERTURE LIST*
%ADD10C,0.150000*%
%ADD11C,0.120000*%
%ADD12C,0.100000*%
G04 APERTURE END LIST*
D10*
%TO.C,H3*%
X24804761Y-4161904D02*
X24804761Y-4733333D01*
X24766666Y-4847619D01*
X24690476Y-4923809D01*
X24576190Y-4961904D01*
X24499999Y-4961904D01*
X25566666Y-4961904D02*
X25185714Y-4961904D01*
X25185714Y-4161904D01*
X26290476Y-4885714D02*
X26252380Y-4923809D01*
X26138095Y-4961904D01*
X26061904Y-4961904D01*
X25947619Y-4923809D01*
X25871428Y-4847619D01*
X25833333Y-4771428D01*
X25795238Y-4619047D01*
X25795238Y-4504761D01*
X25833333Y-4352380D01*
X25871428Y-4276190D01*
X25947619Y-4200000D01*
X26061904Y-4161904D01*
X26138095Y-4161904D01*
X26252380Y-4200000D01*
X26290476Y-4238095D01*
X26861904Y-4161904D02*
X26861904Y-4733333D01*
X26823809Y-4847619D01*
X26747619Y-4923809D01*
X26633333Y-4961904D01*
X26557142Y-4961904D01*
X27623809Y-4961904D02*
X27242857Y-4961904D01*
X27242857Y-4161904D01*
X28347619Y-4885714D02*
X28309523Y-4923809D01*
X28195238Y-4961904D01*
X28119047Y-4961904D01*
X28004761Y-4923809D01*
X27928571Y-4847619D01*
X27890476Y-4771428D01*
X27852380Y-4619047D01*
X27852380Y-4504761D01*
X27890476Y-4352380D01*
X27928571Y-4276190D01*
X28004761Y-4200000D01*
X28119047Y-4161904D01*
X28195238Y-4161904D01*
X28309523Y-4200000D01*
X28347619Y-4238095D01*
X28919047Y-4161904D02*
X28919047Y-4733333D01*
X28880952Y-4847619D01*
X28804761Y-4923809D01*
X28690476Y-4961904D01*
X28614285Y-4961904D01*
X29680952Y-4961904D02*
X29299999Y-4961904D01*
X29299999Y-4161904D01*
X30404761Y-4885714D02*
X30366666Y-4923809D01*
X30252380Y-4961904D01*
X30176190Y-4961904D01*
X30061904Y-4923809D01*
X29985714Y-4847619D01*
X29947619Y-4771428D01*
X29909523Y-4619047D01*
X29909523Y-4504761D01*
X29947619Y-4352380D01*
X29985714Y-4276190D01*
X30061904Y-4200000D01*
X30176190Y-4161904D01*
X30252380Y-4161904D01*
X30366666Y-4200000D01*
X30404761Y-4238095D01*
X30976190Y-4161904D02*
X30976190Y-4733333D01*
X30938095Y-4847619D01*
X30861904Y-4923809D01*
X30747619Y-4961904D01*
X30671428Y-4961904D01*
X31738095Y-4961904D02*
X31357142Y-4961904D01*
X31357142Y-4161904D01*
X32461904Y-4885714D02*
X32423809Y-4923809D01*
X32309523Y-4961904D01*
X32233333Y-4961904D01*
X32119047Y-4923809D01*
X32042857Y-4847619D01*
X32004761Y-4771428D01*
X31966666Y-4619047D01*
X31966666Y-4504761D01*
X32004761Y-4352380D01*
X32042857Y-4276190D01*
X32119047Y-4200000D01*
X32233333Y-4161904D01*
X32309523Y-4161904D01*
X32423809Y-4200000D01*
X32461904Y-4238095D01*
D11*
%TO.C,R3*%
X20875000Y-4850000D02*
X20875000Y-600000D01*
D12*
X20875000Y-4850000D02*
X22925000Y-4850000D01*
X22925000Y-600000D02*
X20875000Y-600000D01*
X22925000Y-4850000D02*
X22925000Y-600000D01*
%TO.C,R1*%
X34075000Y-6975000D02*
X34075000Y-4225000D01*
X35325000Y-4225000D02*
X34075000Y-4225000D01*
X35325000Y-6975000D02*
X35325000Y-4225000D01*
X35325000Y-6975000D02*
X34075000Y-6975000D01*
%TO.C,F1*%
X22475000Y-10450000D02*
X18125000Y-10450000D01*
X18125000Y-10450000D02*
X18125000Y-8400000D01*
X22475000Y-10450000D02*
X22475000Y-8400000D01*
X22475000Y-8400000D02*
X18125000Y-8400000D01*
D11*
%TO.C,U1*%
X20460000Y-6200000D02*
X20460000Y-4400000D01*
X17340000Y-6200000D02*
X17340000Y-7000000D01*
X20460000Y-6200000D02*
X20460000Y-7000000D01*
X17340000Y-6200000D02*
X17340000Y-5400000D01*
%TO.C,J2*%
X15110000Y-4640000D02*
X15110000Y-2140000D01*
X15110000Y-2140000D02*
X14060000Y-2140000D01*
X8890000Y-4640000D02*
X8890000Y-2140000D01*
X8890000Y-2140000D02*
X9940000Y-2140000D01*
X9940000Y-2140000D02*
X9940000Y-1150000D01*
X10060000Y-6610000D02*
X13940000Y-6610000D01*
D12*
%TO.C,C1*%
X16200000Y-550000D02*
X16200000Y-2650000D01*
X16200000Y-550000D02*
X20600000Y-550000D01*
X20600000Y-550000D02*
X20600000Y-2650000D01*
X16200000Y-2650000D02*
X20600000Y-2650000D01*
%TO.C,R2*%
X35325000Y-7700000D02*
X35325000Y-10450000D01*
X34075000Y-7700000D02*
X35325000Y-7700000D01*
X34075000Y-7700000D02*
X34075000Y-10450000D01*
X34075000Y-10450000D02*
X35325000Y-10450000D01*
%TD*%
M02*
