M48
; DRILL file {KiCad (6.0.0)} date Mon Mar 28 01:26:43 2022
; FORMAT={-:-/ absolute / inch / decimal}
; #@! TF.CreationDate,2022-03-28T01:26:43-07:00
; #@! TF.GenerationSoftware,Kicad,Pcbnew,(6.0.0)
; #@! TF.FileFunction,Plated,1,2,PTH
FMAT,2
INCH
; #@! TA.AperFunction,Plated,PTH,ViaDrill
T1C0.0157
; #@! TA.AperFunction,Plated,PTH,ComponentDrill
T2C0.0197
; #@! TA.AperFunction,Plated,PTH,ComponentDrill
T3C0.0236
; #@! TA.AperFunction,Plated,PTH,ComponentDrill
T4C0.1260
%
G90
G05
T1
X0.5669Y-0.0669
X0.7441Y-0.1506
X0.9055Y-0.3898
X0.9803Y-0.3543
X1.0256Y-0.3543
X1.0669Y-0.3583
X1.122Y-0.0433
X1.1378Y-0.3799
X1.2185Y-0.3543
X1.2638Y-0.3543
X1.4055Y-0.2854
T2
X0.0472Y-0.1378
X0.0738Y-0.0738
X0.0738Y-0.2018
X0.1378Y-0.0472
X0.1378Y-0.2283
X0.2018Y-0.0738
X0.2018Y-0.2018
X0.2283Y-0.1378
X1.5039Y-0.1378
X1.5305Y-0.0738
X1.5305Y-0.2018
X1.5945Y-0.0472
X1.5945Y-0.2283
X1.6585Y-0.0738
X1.6585Y-0.2018
X1.685Y-0.1378
T4
X0.1378Y-0.1378
X1.5945Y-0.1378
T3
G00X0.952Y-0.1142
M15
G01X0.952Y-0.0906
M16
G05
G00X0.952Y-0.2886
M15
G01X0.952Y-0.2453
M16
G05
G00X1.2921Y-0.1142
M15
G01X1.2921Y-0.0906
M16
G05
G00X1.2921Y-0.2886
M15
G01X1.2921Y-0.2453
M16
G05
T0
M30
