M48
; DRILL file {KiCad (6.0.0)} date Sat Mar 26 00:04:54 2022
; FORMAT={-:-/ absolute / inch / decimal}
; #@! TF.CreationDate,2022-03-26T00:04:54-07:00
; #@! TF.GenerationSoftware,Kicad,Pcbnew,(6.0.0)
; #@! TF.FileFunction,Plated,1,2,PTH
FMAT,2
INCH
; #@! TA.AperFunction,Plated,PTH,ViaDrill
T1C0.0157
; #@! TA.AperFunction,Plated,PTH,ComponentDrill
T2C0.0197
; #@! TA.AperFunction,Plated,PTH,ComponentDrill
T3C0.0236
; #@! TA.AperFunction,Plated,PTH,ComponentDrill
T4C0.1260
%
G90
G05
T1
X-0.8228Y-0.0669
X-0.5157Y-0.1919
X-0.5157Y-0.2667
X-0.3268Y-0.2667
X-0.2638Y-0.3898
X-0.1417Y-0.3543
X-0.0965Y-0.3543
X-0.0551Y-0.3583
X0.0157Y-0.3799
X0.0965Y-0.3543
X0.1417Y-0.3543
X0.2835Y-0.2854
T2
X-1.1535Y-0.1378
X-1.127Y-0.0738
X-1.127Y-0.2018
X-1.063Y-0.0472
X-1.063Y-0.2283
X-0.999Y-0.0738
X-0.999Y-0.2018
X-0.9724Y-0.1378
X0.3819Y-0.1378
X0.4084Y-0.0738
X0.4084Y-0.2018
X0.4724Y-0.0472
X0.4724Y-0.2283
X0.5365Y-0.0738
X0.5365Y-0.2018
X0.563Y-0.1378
T4
X-1.063Y-0.1378
X0.4724Y-0.1378
T3
G00X-0.1701Y-0.1142
M15
G01X-0.1701Y-0.0906
M16
G05
G00X-0.1701Y-0.2886
M15
G01X-0.1701Y-0.2453
M16
G05
G00X0.1701Y-0.1142
M15
G01X0.1701Y-0.0906
M16
G05
G00X0.1701Y-0.2886
M15
G01X0.1701Y-0.2453
M16
G05
T0
M30
