%TF.GenerationSoftware,KiCad,Pcbnew,(6.0.0)*%
%TF.CreationDate,2022-03-26T00:04:54-07:00*%
%TF.ProjectId,madcatdb,6d616463-6174-4646-922e-6b696361645f,rev?*%
%TF.SameCoordinates,Original*%
%TF.FileFunction,Copper,L1,Top*%
%TF.FilePolarity,Positive*%
%FSLAX46Y46*%
G04 Gerber Fmt 4.6, Leading zero omitted, Abs format (unit mm)*
G04 Created by KiCad (PCBNEW (6.0.0)) date 2022-03-26 00:04:54*
%MOMM*%
%LPD*%
G01*
G04 APERTURE LIST*
G04 Aperture macros list*
%AMRoundRect*
0 Rectangle with rounded corners*
0 $1 Rounding radius*
0 $2 $3 $4 $5 $6 $7 $8 $9 X,Y pos of 4 corners*
0 Add a 4 corners polygon primitive as box body*
4,1,4,$2,$3,$4,$5,$6,$7,$8,$9,$2,$3,0*
0 Add four circle primitives for the rounded corners*
1,1,$1+$1,$2,$3*
1,1,$1+$1,$4,$5*
1,1,$1+$1,$6,$7*
1,1,$1+$1,$8,$9*
0 Add four rect primitives between the rounded corners*
20,1,$1+$1,$2,$3,$4,$5,0*
20,1,$1+$1,$4,$5,$6,$7,0*
20,1,$1+$1,$6,$7,$8,$9,0*
20,1,$1+$1,$8,$9,$2,$3,0*%
G04 Aperture macros list end*
%TA.AperFunction,SMDPad,CuDef*%
%ADD10RoundRect,0.250000X0.625000X-0.312500X0.625000X0.312500X-0.625000X0.312500X-0.625000X-0.312500X0*%
%TD*%
%TA.AperFunction,SMDPad,CuDef*%
%ADD11RoundRect,0.050000X0.250000X0.675000X-0.250000X0.675000X-0.250000X-0.675000X0.250000X-0.675000X0*%
%TD*%
%TA.AperFunction,SMDPad,CuDef*%
%ADD12RoundRect,0.050000X0.100000X0.675000X-0.100000X0.675000X-0.100000X-0.675000X0.100000X-0.675000X0*%
%TD*%
%TA.AperFunction,ComponentPad*%
%ADD13O,1.000000X2.100000*%
%TD*%
%TA.AperFunction,ComponentPad*%
%ADD14O,1.000000X1.600000*%
%TD*%
%TA.AperFunction,SMDPad,CuDef*%
%ADD15RoundRect,0.200000X0.275000X-0.200000X0.275000X0.200000X-0.275000X0.200000X-0.275000X-0.200000X0*%
%TD*%
%TA.AperFunction,SMDPad,CuDef*%
%ADD16RoundRect,0.250000X0.375000X0.625000X-0.375000X0.625000X-0.375000X-0.625000X0.375000X-0.625000X0*%
%TD*%
%TA.AperFunction,SMDPad,CuDef*%
%ADD17RoundRect,0.320000X-0.480000X-0.480000X0.480000X-0.480000X0.480000X0.480000X-0.480000X0.480000X0*%
%TD*%
%TA.AperFunction,SMDPad,CuDef*%
%ADD18RoundRect,0.150000X-0.150000X-0.850000X0.150000X-0.850000X0.150000X0.850000X-0.150000X0.850000X0*%
%TD*%
%TA.AperFunction,SMDPad,CuDef*%
%ADD19RoundRect,0.250000X0.650000X-0.325000X0.650000X0.325000X-0.650000X0.325000X-0.650000X-0.325000X0*%
%TD*%
%TA.AperFunction,ComponentPad*%
%ADD20C,0.800000*%
%TD*%
%TA.AperFunction,ComponentPad*%
%ADD21C,6.000000*%
%TD*%
%TA.AperFunction,SMDPad,CuDef*%
%ADD22RoundRect,0.150000X0.512500X0.150000X-0.512500X0.150000X-0.512500X-0.150000X0.512500X-0.150000X0*%
%TD*%
%TA.AperFunction,SMDPad,CuDef*%
%ADD23RoundRect,0.200000X-0.275000X0.200000X-0.275000X-0.200000X0.275000X-0.200000X0.275000X0.200000X0*%
%TD*%
%TA.AperFunction,ViaPad*%
%ADD24C,0.800000*%
%TD*%
%TA.AperFunction,Conductor*%
%ADD25C,0.400000*%
%TD*%
%TA.AperFunction,Conductor*%
%ADD26C,0.800000*%
%TD*%
%TA.AperFunction,Conductor*%
%ADD27C,0.600000*%
%TD*%
%TA.AperFunction,Conductor*%
%ADD28C,0.200000*%
%TD*%
G04 APERTURE END LIST*
D10*
%TO.P,R3,1*%
%TO.N,GND*%
X-10700000Y-4162500D03*
%TO.P,R3,2*%
%TO.N,Earth*%
X-10700000Y-1237500D03*
%TD*%
D11*
%TO.P,J1,A1,GND*%
%TO.N,GND*%
X3250000Y-7695000D03*
%TO.P,J1,A4,VBUS*%
%TO.N,VBUS*%
X2450000Y-7695000D03*
D12*
%TO.P,J1,A5,CC1*%
%TO.N,Net-(J1-PadA5)*%
X1250000Y-7695000D03*
%TO.P,J1,A6,D+*%
%TO.N,DB+*%
X250000Y-7695000D03*
%TO.P,J1,A7,D-*%
%TO.N,DB-*%
X-250000Y-7695000D03*
%TO.P,J1,A8,SBU1*%
%TO.N,unconnected-(J1-PadA8)*%
X-1250000Y-7695000D03*
D11*
%TO.P,J1,A9,VBUS*%
%TO.N,VBUS*%
X-2450000Y-7695000D03*
%TO.P,J1,A12,GND*%
%TO.N,GND*%
X-3250000Y-7695000D03*
%TO.P,J1,B1,GND*%
X-3250000Y-7695000D03*
%TO.P,J1,B4,VBUS*%
%TO.N,VBUS*%
X-2450000Y-7695000D03*
D12*
%TO.P,J1,B5,CC2*%
%TO.N,Net-(J1-PadB5)*%
X-1750000Y-7695000D03*
%TO.P,J1,B6,D+*%
%TO.N,DB+*%
X-750000Y-7695000D03*
%TO.P,J1,B7,D-*%
%TO.N,DB-*%
X750000Y-7695000D03*
%TO.P,J1,B8,SBU2*%
%TO.N,unconnected-(J1-PadB8)*%
X1750000Y-7695000D03*
D11*
%TO.P,J1,B9,VBUS*%
%TO.N,VBUS*%
X2450000Y-7695000D03*
%TO.P,J1,B12,GND*%
%TO.N,GND*%
X3250000Y-7695000D03*
D13*
%TO.P,J1,S1,SHIELD*%
%TO.N,Earth*%
X4320000Y-6780000D03*
D14*
X4320000Y-2600000D03*
D13*
X-4320000Y-6780000D03*
D14*
X-4320000Y-2600000D03*
%TD*%
D15*
%TO.P,R1,1*%
%TO.N,Net-(J1-PadA5)*%
X6200000Y-6425000D03*
%TO.P,R1,2*%
%TO.N,GND*%
X6200000Y-4775000D03*
%TD*%
D16*
%TO.P,F1,1*%
%TO.N,VBUS*%
X-7900000Y-9700000D03*
%TO.P,F1,2*%
%TO.N,+5V*%
X-10700000Y-9700000D03*
%TD*%
D17*
%TO.P,J2,*%
%TO.N,*%
X-15500000Y-5700000D03*
X-21500000Y-5700000D03*
D18*
%TO.P,J2,1,Pin_1*%
%TO.N,GND*%
X-20000000Y-1700000D03*
%TO.P,J2,2,Pin_2*%
%TO.N,D-*%
X-19000000Y-1700000D03*
%TO.P,J2,3,Pin_3*%
%TO.N,D+*%
X-18000000Y-1700000D03*
%TO.P,J2,4,Pin_4*%
%TO.N,+5V*%
X-17000000Y-1700000D03*
%TD*%
D19*
%TO.P,C1,1*%
%TO.N,GND*%
X-8300000Y-4175000D03*
%TO.P,C1,2*%
%TO.N,Earth*%
X-8300000Y-1225000D03*
%TD*%
D20*
%TO.P,H2,1,1*%
%TO.N,Earth*%
X12000000Y-5800000D03*
X9700000Y-3500000D03*
X12000000Y-1200000D03*
X13626346Y-5126346D03*
X10373654Y-5126346D03*
X10373654Y-1873654D03*
X13626346Y-1873654D03*
D21*
X12000000Y-3500000D03*
D20*
X14300000Y-3500000D03*
%TD*%
D22*
%TO.P,U1,1,I/O1*%
%TO.N,DB-*%
X-9562500Y-7724874D03*
%TO.P,U1,2,GND*%
%TO.N,GND*%
X-9562500Y-6774874D03*
%TO.P,U1,3,I/O2*%
%TO.N,DB+*%
X-9562500Y-5824874D03*
%TO.P,U1,4,I/O2*%
%TO.N,D+*%
X-11837500Y-5824874D03*
%TO.P,U1,5,VBUS*%
%TO.N,+5V*%
X-11837500Y-6774874D03*
%TO.P,U1,6,I/O1*%
%TO.N,D-*%
X-11837500Y-7724874D03*
%TD*%
D23*
%TO.P,R2,1*%
%TO.N,GND*%
X6200000Y-8250000D03*
%TO.P,R2,2*%
%TO.N,Net-(J1-PadB5)*%
X6200000Y-9900000D03*
%TD*%
D20*
%TO.P,H1,*%
%TO.N,*%
X-24700000Y-3500000D03*
X-28626346Y-1873654D03*
X-28626346Y-5126346D03*
D21*
X-27000000Y-3500000D03*
D20*
X-27000000Y-5800000D03*
X-27000000Y-1200000D03*
X-25373654Y-5126346D03*
X-25373654Y-1873654D03*
X-29300000Y-3500000D03*
%TD*%
D24*
%TO.N,GND*%
X-20900000Y-1700000D03*
X-3600000Y-9000000D03*
X-8300000Y-6774874D03*
X7200000Y-7250000D03*
X3600000Y-9000000D03*
%TO.N,VBUS*%
X2450000Y-9000000D03*
X-6700000Y-9900000D03*
X-2450000Y-9000000D03*
%TO.N,+5V*%
X-13100000Y-6774874D03*
X-13100000Y-4874874D03*
%TO.N,Net-(J1-PadB5)*%
X400000Y-9650000D03*
X-1400000Y-9100000D03*
%TD*%
D25*
%TO.N,GND*%
X-3250000Y-7695000D02*
X-3250000Y-8650000D01*
X-20000000Y-1700000D02*
X-20900000Y-1700000D01*
X-9562500Y-6600000D02*
X-10075000Y-6600000D01*
X-3250000Y-8650000D02*
X-3600000Y-9000000D01*
X-10700000Y-4162500D02*
X-8312500Y-4162500D01*
X-9562500Y-6774874D02*
X-8300000Y-6774874D01*
X7200000Y-7250000D02*
X6200000Y-8250000D01*
X6965685Y-5540685D02*
X6200000Y-4775000D01*
X7200000Y-7250000D02*
X7200000Y-6106371D01*
X3250000Y-8650000D02*
X3600000Y-9000000D01*
X-10700000Y-5975000D02*
X-10700000Y-4162500D01*
X3250000Y-7695000D02*
X3250000Y-8650000D01*
X-8312500Y-4162500D02*
X-8300000Y-4175000D01*
X-10700000Y-5975000D02*
G75*
G03*
X-10075000Y-6600000I624999J-1D01*
G01*
X7200000Y-6106371D02*
G75*
G03*
X6965685Y-5540685I-799995J2D01*
G01*
D26*
%TO.N,Earth*%
X225000Y-1225000D02*
X9227944Y-1225000D01*
D27*
X-4320000Y-2600000D02*
X-4320000Y-6780000D01*
D25*
X-8312500Y-1237500D02*
X-8300000Y-1225000D01*
D26*
X10076472Y-1576472D02*
X12000000Y-3500000D01*
X-8300000Y-1225000D02*
X225000Y-1225000D01*
D27*
X225000Y-1225000D02*
X225000Y-2775000D01*
D26*
X-10700000Y-1237500D02*
X-8312500Y-1237500D01*
D27*
X4320000Y-6780000D02*
X4320000Y-2600000D01*
D26*
X10076472Y-1576472D02*
G75*
G03*
X9227944Y-1225000I-848530J-848532D01*
G01*
D25*
%TO.N,VBUS*%
X2450000Y-7695000D02*
X2450000Y-9000000D01*
X-2450000Y-7695000D02*
X-2450000Y-9000000D01*
X-7900000Y-9900000D02*
X-6700000Y-9900000D01*
%TO.N,+5V*%
X-11837500Y-6774874D02*
X-13100000Y-6774874D01*
X-13100000Y-4874874D02*
X-13100000Y-3050000D01*
X-10700000Y-7575000D02*
X-10700000Y-9700000D01*
X-11837500Y-6950000D02*
X-11325000Y-6950000D01*
X-14450000Y-1700000D02*
X-17000000Y-1700000D01*
X-10700000Y-7575000D02*
G75*
G03*
X-11325000Y-6950000I-624999J1D01*
G01*
X-14450000Y-1700000D02*
G75*
G02*
X-13100000Y-3050000I-1J-1350001D01*
G01*
D28*
%TO.N,Net-(J1-PadA5)*%
X2050000Y-9800000D02*
X4500000Y-9800000D01*
X5300000Y-9000000D02*
X5300000Y-7656371D01*
X1250000Y-7695000D02*
X1250000Y-9000000D01*
X5534315Y-7090685D02*
X6200000Y-6425000D01*
X2050000Y-9800000D02*
G75*
G02*
X1250000Y-9000000I1J800001D01*
G01*
X4500000Y-9800000D02*
G75*
G03*
X5300000Y-9000000I-1J800001D01*
G01*
X5300000Y-7656371D02*
G75*
G02*
X5534315Y-7090685I799995J2D01*
G01*
%TO.N,DB+*%
X-8300000Y-5824874D02*
X-9562500Y-5824874D01*
X-350000Y-6620000D02*
X-150000Y-6620000D01*
X-1400000Y-9800000D02*
X-3600000Y-9800000D01*
X-7628248Y-6103123D02*
X-4165685Y-9565686D01*
X250000Y-7020000D02*
X250000Y-7695000D01*
X-750000Y-7695000D02*
X-750000Y-7020000D01*
X-700000Y-7695000D02*
X-700000Y-9100000D01*
X-1400000Y-9800000D02*
G75*
G03*
X-700000Y-9100000I1J699999D01*
G01*
X-350000Y-6620000D02*
G75*
G03*
X-750000Y-7020000I-1J-399999D01*
G01*
X-150000Y-6620000D02*
G75*
G02*
X250000Y-7020000I1J-399999D01*
G01*
X-7628248Y-6103123D02*
G75*
G03*
X-8300000Y-5824874I-671753J-671754D01*
G01*
X-4165685Y-9565686D02*
G75*
G03*
X-3600000Y-9800000I565685J565686D01*
G01*
%TO.N,DB-*%
X-300000Y-8770000D02*
X-300000Y-9100000D01*
X-300000Y-8770000D02*
X350000Y-8770000D01*
X-300000Y-7695000D02*
X-300000Y-8770000D01*
X-1400000Y-10200000D02*
X-3600000Y-10200000D01*
X-6965685Y-7724874D02*
X-9562500Y-7724874D01*
X-4448528Y-9848528D02*
X-6293934Y-8003122D01*
X750000Y-8370000D02*
X750000Y-7695000D01*
X-1400000Y-10200000D02*
G75*
G03*
X-300000Y-9100000I-2J1100002D01*
G01*
X-6293934Y-8003122D02*
G75*
G03*
X-6965685Y-7724874I-671750J-671749D01*
G01*
X-4448528Y-9848528D02*
G75*
G03*
X-3600000Y-10200000I848530J848532D01*
G01*
X350000Y-8770000D02*
G75*
G03*
X750000Y-8370000I1J399999D01*
G01*
%TO.N,Net-(J1-PadB5)*%
X-1750000Y-8750000D02*
X-1400000Y-9100000D01*
X598528Y-9848528D02*
X400000Y-9650000D01*
X6200000Y-10200000D02*
X1447056Y-10200000D01*
X-1750000Y-7695000D02*
X-1750000Y-8750000D01*
X598528Y-9848528D02*
G75*
G03*
X1447056Y-10200000I848530J848532D01*
G01*
%TO.N,D-*%
X-18700000Y-6374874D02*
X-18700000Y-2331371D01*
X-18934315Y-1765685D02*
X-19000000Y-1700000D01*
X-17350000Y-7724874D02*
X-11837500Y-7724874D01*
X-18700000Y-2331371D02*
G75*
G03*
X-18934315Y-1765685I-799995J2D01*
G01*
X-18700000Y-6374874D02*
G75*
G03*
X-17350000Y-7724874I1350001J1D01*
G01*
%TO.N,D+*%
X-18065685Y-1765685D02*
X-18000000Y-1700000D01*
X-15387006Y-7324874D02*
X-17350000Y-7324874D01*
X-18300000Y-6374874D02*
X-18300000Y-2331371D01*
X-13771752Y-6103123D02*
X-14715255Y-7046626D01*
X-11837500Y-5824874D02*
X-13100000Y-5824874D01*
X-18300000Y-6374874D02*
G75*
G03*
X-17350000Y-7324874I950002J2D01*
G01*
X-18065685Y-1765685D02*
G75*
G03*
X-18300000Y-2331371I565692J-565689D01*
G01*
X-15387006Y-7324874D02*
G75*
G03*
X-14715255Y-7046626I1J949997D01*
G01*
X-13100000Y-5824875D02*
G75*
G03*
X-13771751Y-6103124I1J-950002D01*
G01*
%TD*%
%TA.AperFunction,Conductor*%
%TO.N,Earth*%
G36*
X3865468Y-252450D02*
G01*
X3893596Y-256905D01*
X3942477Y-264647D01*
X4001692Y-283887D01*
X4057034Y-312086D01*
X4107402Y-348681D01*
X4151319Y-392598D01*
X4187914Y-442966D01*
X4216113Y-498308D01*
X4235354Y-557525D01*
X4247550Y-634532D01*
X4250000Y-665661D01*
X4250000Y-1233626D01*
X4230293Y-1319969D01*
X4175074Y-1389210D01*
X4092376Y-1428277D01*
X4050553Y-1437167D01*
X4030827Y-1443576D01*
X3877050Y-1512042D01*
X3859082Y-1522416D01*
X3722908Y-1621352D01*
X3707485Y-1635239D01*
X3594854Y-1760328D01*
X3582657Y-1777117D01*
X3498500Y-1922882D01*
X3490056Y-1941845D01*
X3438040Y-2101932D01*
X3433728Y-2122218D01*
X3420544Y-2247661D01*
X3420000Y-2258040D01*
X3420000Y-2377577D01*
X3424330Y-2396547D01*
X3431500Y-2400000D01*
X4250000Y-2400000D01*
X4250000Y-2800000D01*
X3442423Y-2800000D01*
X3423453Y-2804330D01*
X3420000Y-2811500D01*
X3420000Y-2941960D01*
X3420544Y-2952339D01*
X3433728Y-3077782D01*
X3438040Y-3098068D01*
X3490056Y-3258155D01*
X3498500Y-3277118D01*
X3582657Y-3422883D01*
X3594854Y-3439672D01*
X3707487Y-3564764D01*
X3722903Y-3578644D01*
X3859085Y-3677587D01*
X3877047Y-3687957D01*
X4030827Y-3756424D01*
X4050553Y-3762833D01*
X4092376Y-3771723D01*
X4172734Y-3808952D01*
X4228982Y-3877360D01*
X4250000Y-3966374D01*
X4250000Y-4584339D01*
X4247550Y-4615468D01*
X4235354Y-4692475D01*
X4216113Y-4751692D01*
X4187914Y-4807034D01*
X4151319Y-4857402D01*
X4107402Y-4901319D01*
X4057034Y-4937914D01*
X4001692Y-4966113D01*
X3942477Y-4985353D01*
X3893596Y-4993095D01*
X3865468Y-4997550D01*
X3834339Y-5000000D01*
X-3834339Y-5000000D01*
X-3865468Y-4997550D01*
X-3893596Y-4993095D01*
X-3942477Y-4985353D01*
X-4001692Y-4966113D01*
X-4057034Y-4937914D01*
X-4107402Y-4901319D01*
X-4151319Y-4857402D01*
X-4187914Y-4807034D01*
X-4216113Y-4751692D01*
X-4235354Y-4692475D01*
X-4247550Y-4615468D01*
X-4250000Y-4584339D01*
X-4250000Y-3966374D01*
X-4230293Y-3880031D01*
X-4175074Y-3810790D01*
X-4092376Y-3771723D01*
X-4050553Y-3762833D01*
X-4030827Y-3756424D01*
X-3877050Y-3687958D01*
X-3859082Y-3677584D01*
X-3722908Y-3578648D01*
X-3707485Y-3564761D01*
X-3594854Y-3439672D01*
X-3582657Y-3422883D01*
X-3498500Y-3277118D01*
X-3490056Y-3258155D01*
X-3438040Y-3098068D01*
X-3433728Y-3077782D01*
X-3420544Y-2952339D01*
X-3420000Y-2941960D01*
X-3420000Y-2822423D01*
X-3424330Y-2803453D01*
X-3431500Y-2800000D01*
X-4250000Y-2800000D01*
X-4250000Y-2400000D01*
X-3442423Y-2400000D01*
X-3423453Y-2395670D01*
X-3420000Y-2388500D01*
X-3420000Y-2258040D01*
X-3420544Y-2247661D01*
X-3433728Y-2122218D01*
X-3438040Y-2101932D01*
X-3490056Y-1941845D01*
X-3498500Y-1922882D01*
X-3582657Y-1777117D01*
X-3594854Y-1760328D01*
X-3707487Y-1635236D01*
X-3722903Y-1621356D01*
X-3859085Y-1522413D01*
X-3877047Y-1512043D01*
X-4030827Y-1443576D01*
X-4050553Y-1437167D01*
X-4092376Y-1428277D01*
X-4172734Y-1391048D01*
X-4228982Y-1322640D01*
X-4250000Y-1233626D01*
X-4250000Y-665661D01*
X-4247550Y-634532D01*
X-4235354Y-557525D01*
X-4216113Y-498308D01*
X-4187914Y-442966D01*
X-4151319Y-392598D01*
X-4107402Y-348681D01*
X-4057034Y-312086D01*
X-4001692Y-283887D01*
X-3942477Y-264647D01*
X-3893596Y-256905D01*
X-3865468Y-252450D01*
X-3834339Y-250000D01*
X3834339Y-250000D01*
X3865468Y-252450D01*
G37*
%TD.AperFunction*%
%TD*%
M02*
