%TF.GenerationSoftware,KiCad,Pcbnew,(6.0.0)*%
%TF.CreationDate,2022-03-26T00:04:54-07:00*%
%TF.ProjectId,madcatdb,6d616463-6174-4646-922e-6b696361645f,rev?*%
%TF.SameCoordinates,Original*%
%TF.FileFunction,Legend,Top*%
%TF.FilePolarity,Positive*%
%FSLAX46Y46*%
G04 Gerber Fmt 4.6, Leading zero omitted, Abs format (unit mm)*
G04 Created by KiCad (PCBNEW (6.0.0)) date 2022-03-26 00:04:54*
%MOMM*%
%LPD*%
G01*
G04 APERTURE LIST*
%ADD10C,0.150000*%
%ADD11C,0.120000*%
%ADD12C,0.100000*%
G04 APERTURE END LIST*
D10*
%TO.C,H3*%
X-3695238Y-4161904D02*
X-3695238Y-4733333D01*
X-3733333Y-4847619D01*
X-3809523Y-4923809D01*
X-3923809Y-4961904D01*
X-4000000Y-4961904D01*
X-2933333Y-4961904D02*
X-3314285Y-4961904D01*
X-3314285Y-4161904D01*
X-2209523Y-4885714D02*
X-2247619Y-4923809D01*
X-2361904Y-4961904D01*
X-2438095Y-4961904D01*
X-2552380Y-4923809D01*
X-2628571Y-4847619D01*
X-2666666Y-4771428D01*
X-2704761Y-4619047D01*
X-2704761Y-4504761D01*
X-2666666Y-4352380D01*
X-2628571Y-4276190D01*
X-2552380Y-4200000D01*
X-2438095Y-4161904D01*
X-2361904Y-4161904D01*
X-2247619Y-4200000D01*
X-2209523Y-4238095D01*
X-1638095Y-4161904D02*
X-1638095Y-4733333D01*
X-1676190Y-4847619D01*
X-1752380Y-4923809D01*
X-1866666Y-4961904D01*
X-1942857Y-4961904D01*
X-876190Y-4961904D02*
X-1257142Y-4961904D01*
X-1257142Y-4161904D01*
X-152380Y-4885714D02*
X-190476Y-4923809D01*
X-304761Y-4961904D01*
X-380952Y-4961904D01*
X-495238Y-4923809D01*
X-571428Y-4847619D01*
X-609523Y-4771428D01*
X-647619Y-4619047D01*
X-647619Y-4504761D01*
X-609523Y-4352380D01*
X-571428Y-4276190D01*
X-495238Y-4200000D01*
X-380952Y-4161904D01*
X-304761Y-4161904D01*
X-190476Y-4200000D01*
X-152380Y-4238095D01*
X419047Y-4161904D02*
X419047Y-4733333D01*
X380952Y-4847619D01*
X304761Y-4923809D01*
X190476Y-4961904D01*
X114285Y-4961904D01*
X1180952Y-4961904D02*
X799999Y-4961904D01*
X799999Y-4161904D01*
X1904761Y-4885714D02*
X1866666Y-4923809D01*
X1752380Y-4961904D01*
X1676190Y-4961904D01*
X1561904Y-4923809D01*
X1485714Y-4847619D01*
X1447619Y-4771428D01*
X1409523Y-4619047D01*
X1409523Y-4504761D01*
X1447619Y-4352380D01*
X1485714Y-4276190D01*
X1561904Y-4200000D01*
X1676190Y-4161904D01*
X1752380Y-4161904D01*
X1866666Y-4200000D01*
X1904761Y-4238095D01*
X2476190Y-4161904D02*
X2476190Y-4733333D01*
X2438095Y-4847619D01*
X2361904Y-4923809D01*
X2247619Y-4961904D01*
X2171428Y-4961904D01*
X3238095Y-4961904D02*
X2857142Y-4961904D01*
X2857142Y-4161904D01*
X3961904Y-4885714D02*
X3923809Y-4923809D01*
X3809523Y-4961904D01*
X3733333Y-4961904D01*
X3619047Y-4923809D01*
X3542857Y-4847619D01*
X3504761Y-4771428D01*
X3466666Y-4619047D01*
X3466666Y-4504761D01*
X3504761Y-4352380D01*
X3542857Y-4276190D01*
X3619047Y-4200000D01*
X3733333Y-4161904D01*
X3809523Y-4161904D01*
X3923809Y-4200000D01*
X3961904Y-4238095D01*
D11*
%TO.C,R3*%
X-11725000Y-4825000D02*
X-11725000Y-575000D01*
D12*
X-11725000Y-4825000D02*
X-9675000Y-4825000D01*
X-9675000Y-575000D02*
X-11725000Y-575000D01*
X-9675000Y-4825000D02*
X-9675000Y-575000D01*
%TO.C,R1*%
X5575000Y-6975000D02*
X5575000Y-4225000D01*
X6825000Y-4225000D02*
X5575000Y-4225000D01*
X6825000Y-6975000D02*
X6825000Y-4225000D01*
X6825000Y-6975000D02*
X5575000Y-6975000D01*
%TO.C,F1*%
X-7125000Y-10725000D02*
X-11475000Y-10725000D01*
X-11475000Y-10725000D02*
X-11475000Y-8675000D01*
X-7125000Y-10725000D02*
X-7125000Y-8675000D01*
X-7125000Y-8675000D02*
X-11475000Y-8675000D01*
D11*
%TO.C,J2*%
X-15390000Y-4640000D02*
X-15390000Y-2140000D01*
X-15390000Y-2140000D02*
X-16440000Y-2140000D01*
X-21610000Y-4640000D02*
X-21610000Y-2140000D01*
X-21610000Y-2140000D02*
X-20560000Y-2140000D01*
X-20560000Y-2140000D02*
X-20560000Y-1150000D01*
X-20440000Y-6610000D02*
X-16560000Y-6610000D01*
D12*
%TO.C,C1*%
X-9350000Y-4900000D02*
X-7250000Y-4900000D01*
X-9350000Y-4900000D02*
X-9350000Y-500000D01*
X-9350000Y-500000D02*
X-7250000Y-500000D01*
X-7250000Y-4900000D02*
X-7250000Y-500000D01*
D11*
%TO.C,U1*%
X-10700000Y-5214874D02*
X-9900000Y-5214874D01*
X-10700000Y-8334874D02*
X-8900000Y-8334874D01*
X-10700000Y-8334874D02*
X-11500000Y-8334874D01*
X-10700000Y-5214874D02*
X-11500000Y-5214874D01*
D12*
%TO.C,R2*%
X6825000Y-7700000D02*
X6825000Y-10450000D01*
X5575000Y-7700000D02*
X6825000Y-7700000D01*
X5575000Y-7700000D02*
X5575000Y-10450000D01*
X5575000Y-10450000D02*
X6825000Y-10450000D01*
%TD*%
M02*
