%TF.GenerationSoftware,KiCad,Pcbnew,(6.0.0)*%
%TF.CreationDate,2022-03-28T02:07:41-07:00*%
%TF.ProjectId,squatterboard2,73717561-7474-4657-9262-6f617264322e,rev?*%
%TF.SameCoordinates,Original*%
%TF.FileFunction,Soldermask,Top*%
%TF.FilePolarity,Negative*%
%FSLAX46Y46*%
G04 Gerber Fmt 4.6, Leading zero omitted, Abs format (unit mm)*
G04 Created by KiCad (PCBNEW (6.0.0)) date 2022-03-28 02:07:41*
%MOMM*%
%LPD*%
G01*
G04 APERTURE LIST*
G04 Aperture macros list*
%AMRoundRect*
0 Rectangle with rounded corners*
0 $1 Rounding radius*
0 $2 $3 $4 $5 $6 $7 $8 $9 X,Y pos of 4 corners*
0 Add a 4 corners polygon primitive as box body*
4,1,4,$2,$3,$4,$5,$6,$7,$8,$9,$2,$3,0*
0 Add four circle primitives for the rounded corners*
1,1,$1+$1,$2,$3*
1,1,$1+$1,$4,$5*
1,1,$1+$1,$6,$7*
1,1,$1+$1,$8,$9*
0 Add four rect primitives between the rounded corners*
20,1,$1+$1,$2,$3,$4,$5,0*
20,1,$1+$1,$4,$5,$6,$7,0*
20,1,$1+$1,$6,$7,$8,$9,0*
20,1,$1+$1,$8,$9,$2,$3,0*%
G04 Aperture macros list end*
%ADD10RoundRect,0.250000X0.625000X-0.312500X0.625000X0.312500X-0.625000X0.312500X-0.625000X-0.312500X0*%
%ADD11C,0.650000*%
%ADD12RoundRect,0.050000X0.250000X0.675000X-0.250000X0.675000X-0.250000X-0.675000X0.250000X-0.675000X0*%
%ADD13RoundRect,0.050000X0.100000X0.675000X-0.100000X0.675000X-0.100000X-0.675000X0.100000X-0.675000X0*%
%ADD14O,1.000000X1.600000*%
%ADD15O,1.000000X2.100000*%
%ADD16RoundRect,0.200000X0.275000X-0.200000X0.275000X0.200000X-0.275000X0.200000X-0.275000X-0.200000X0*%
%ADD17RoundRect,0.250000X0.375000X0.625000X-0.375000X0.625000X-0.375000X-0.625000X0.375000X-0.625000X0*%
%ADD18RoundRect,0.150000X-0.150000X0.512500X-0.150000X-0.512500X0.150000X-0.512500X0.150000X0.512500X0*%
%ADD19RoundRect,0.320000X-0.480000X-0.480000X0.480000X-0.480000X0.480000X0.480000X-0.480000X0.480000X0*%
%ADD20RoundRect,0.150000X-0.150000X-0.850000X0.150000X-0.850000X0.150000X0.850000X-0.150000X0.850000X0*%
%ADD21RoundRect,0.250000X-0.325000X-0.650000X0.325000X-0.650000X0.325000X0.650000X-0.325000X0.650000X0*%
%ADD22C,0.800000*%
%ADD23C,6.000000*%
%ADD24RoundRect,0.200000X-0.275000X0.200000X-0.275000X-0.200000X0.275000X-0.200000X0.275000X0.200000X0*%
G04 APERTURE END LIST*
D10*
%TO.C,R3*%
X21900000Y-4187500D03*
X21900000Y-1262500D03*
%TD*%
D11*
%TO.C,J1*%
X31390000Y-6250000D03*
X25610000Y-6250000D03*
D12*
X31750000Y-7695000D03*
X30950000Y-7695000D03*
D13*
X29750000Y-7695000D03*
X28750000Y-7695000D03*
X28250000Y-7695000D03*
X27250000Y-7695000D03*
D12*
X26050000Y-7695000D03*
X25250000Y-7695000D03*
X25250000Y-7695000D03*
X26050000Y-7695000D03*
D13*
X26750000Y-7695000D03*
X27750000Y-7695000D03*
X29250000Y-7695000D03*
X30250000Y-7695000D03*
D12*
X30950000Y-7695000D03*
X31750000Y-7695000D03*
D14*
X24180000Y-2600000D03*
X32820000Y-2600000D03*
D15*
X32820000Y-6780000D03*
X24180000Y-6780000D03*
%TD*%
D16*
%TO.C,R1*%
X34700000Y-6425000D03*
X34700000Y-4775000D03*
%TD*%
D17*
%TO.C,F1*%
X21700000Y-9425000D03*
X18900000Y-9425000D03*
%TD*%
D18*
%TO.C,U1*%
X19850000Y-5062500D03*
X18900000Y-5062500D03*
X17950000Y-5062500D03*
X17950000Y-7337500D03*
X18900000Y-7337500D03*
X19850000Y-7337500D03*
%TD*%
D19*
%TO.C,J2*%
X15000000Y-5700000D03*
X9000000Y-5700000D03*
D20*
X10500000Y-1700000D03*
X11500000Y-1700000D03*
X12500000Y-1700000D03*
X13500000Y-1700000D03*
%TD*%
D21*
%TO.C,C1*%
X16925000Y-1600000D03*
X19875000Y-1600000D03*
%TD*%
D22*
%TO.C,H2*%
X40500000Y-5800000D03*
X38200000Y-3500000D03*
X40500000Y-1200000D03*
X42126346Y-5126346D03*
X38873654Y-5126346D03*
X38873654Y-1873654D03*
X42126346Y-1873654D03*
D23*
X40500000Y-3500000D03*
D22*
X42800000Y-3500000D03*
%TD*%
D24*
%TO.C,R2*%
X34700000Y-8250000D03*
X34700000Y-9900000D03*
%TD*%
D22*
%TO.C,H1*%
X1200000Y-3500000D03*
X5126346Y-1873654D03*
X5126346Y-5126346D03*
D23*
X3500000Y-3500000D03*
D22*
X3500000Y-5800000D03*
X3500000Y-1200000D03*
X1873654Y-5126346D03*
X1873654Y-1873654D03*
X5800000Y-3500000D03*
%TD*%
M02*
