%TF.GenerationSoftware,KiCad,Pcbnew,(6.0.0)*%
%TF.CreationDate,2022-03-28T02:07:41-07:00*%
%TF.ProjectId,squatterboard2,73717561-7474-4657-9262-6f617264322e,rev?*%
%TF.SameCoordinates,Original*%
%TF.FileFunction,Copper,L1,Top*%
%TF.FilePolarity,Positive*%
%FSLAX46Y46*%
G04 Gerber Fmt 4.6, Leading zero omitted, Abs format (unit mm)*
G04 Created by KiCad (PCBNEW (6.0.0)) date 2022-03-28 02:07:41*
%MOMM*%
%LPD*%
G01*
G04 APERTURE LIST*
G04 Aperture macros list*
%AMRoundRect*
0 Rectangle with rounded corners*
0 $1 Rounding radius*
0 $2 $3 $4 $5 $6 $7 $8 $9 X,Y pos of 4 corners*
0 Add a 4 corners polygon primitive as box body*
4,1,4,$2,$3,$4,$5,$6,$7,$8,$9,$2,$3,0*
0 Add four circle primitives for the rounded corners*
1,1,$1+$1,$2,$3*
1,1,$1+$1,$4,$5*
1,1,$1+$1,$6,$7*
1,1,$1+$1,$8,$9*
0 Add four rect primitives between the rounded corners*
20,1,$1+$1,$2,$3,$4,$5,0*
20,1,$1+$1,$4,$5,$6,$7,0*
20,1,$1+$1,$6,$7,$8,$9,0*
20,1,$1+$1,$8,$9,$2,$3,0*%
G04 Aperture macros list end*
%TA.AperFunction,SMDPad,CuDef*%
%ADD10RoundRect,0.250000X0.625000X-0.312500X0.625000X0.312500X-0.625000X0.312500X-0.625000X-0.312500X0*%
%TD*%
%TA.AperFunction,SMDPad,CuDef*%
%ADD11RoundRect,0.050000X0.250000X0.675000X-0.250000X0.675000X-0.250000X-0.675000X0.250000X-0.675000X0*%
%TD*%
%TA.AperFunction,SMDPad,CuDef*%
%ADD12RoundRect,0.050000X0.100000X0.675000X-0.100000X0.675000X-0.100000X-0.675000X0.100000X-0.675000X0*%
%TD*%
%TA.AperFunction,ComponentPad*%
%ADD13O,1.000000X1.600000*%
%TD*%
%TA.AperFunction,ComponentPad*%
%ADD14O,1.000000X2.100000*%
%TD*%
%TA.AperFunction,SMDPad,CuDef*%
%ADD15RoundRect,0.200000X0.275000X-0.200000X0.275000X0.200000X-0.275000X0.200000X-0.275000X-0.200000X0*%
%TD*%
%TA.AperFunction,SMDPad,CuDef*%
%ADD16RoundRect,0.250000X0.375000X0.625000X-0.375000X0.625000X-0.375000X-0.625000X0.375000X-0.625000X0*%
%TD*%
%TA.AperFunction,SMDPad,CuDef*%
%ADD17RoundRect,0.150000X-0.150000X0.512500X-0.150000X-0.512500X0.150000X-0.512500X0.150000X0.512500X0*%
%TD*%
%TA.AperFunction,SMDPad,CuDef*%
%ADD18RoundRect,0.320000X-0.480000X-0.480000X0.480000X-0.480000X0.480000X0.480000X-0.480000X0.480000X0*%
%TD*%
%TA.AperFunction,SMDPad,CuDef*%
%ADD19RoundRect,0.150000X-0.150000X-0.850000X0.150000X-0.850000X0.150000X0.850000X-0.150000X0.850000X0*%
%TD*%
%TA.AperFunction,SMDPad,CuDef*%
%ADD20RoundRect,0.250000X-0.325000X-0.650000X0.325000X-0.650000X0.325000X0.650000X-0.325000X0.650000X0*%
%TD*%
%TA.AperFunction,ComponentPad*%
%ADD21C,0.800000*%
%TD*%
%TA.AperFunction,ComponentPad*%
%ADD22C,6.000000*%
%TD*%
%TA.AperFunction,SMDPad,CuDef*%
%ADD23RoundRect,0.200000X-0.275000X0.200000X-0.275000X-0.200000X0.275000X-0.200000X0.275000X0.200000X0*%
%TD*%
%TA.AperFunction,ViaPad*%
%ADD24C,0.800000*%
%TD*%
%TA.AperFunction,Conductor*%
%ADD25C,0.400000*%
%TD*%
%TA.AperFunction,Conductor*%
%ADD26C,0.800000*%
%TD*%
%TA.AperFunction,Conductor*%
%ADD27C,0.200000*%
%TD*%
G04 APERTURE END LIST*
D10*
%TO.P,R3,1*%
%TO.N,GND*%
X21900000Y-4187500D03*
%TO.P,R3,2*%
%TO.N,Earth*%
X21900000Y-1262500D03*
%TD*%
D11*
%TO.P,J1,A1,GND*%
%TO.N,GND*%
X31750000Y-7695000D03*
%TO.P,J1,A4,VBUS*%
%TO.N,VBUS*%
X30950000Y-7695000D03*
D12*
%TO.P,J1,A5,CC1*%
%TO.N,Net-(J1-PadA5)*%
X29750000Y-7695000D03*
%TO.P,J1,A6,D+*%
%TO.N,D+*%
X28750000Y-7695000D03*
%TO.P,J1,A7,D-*%
%TO.N,D-*%
X28250000Y-7695000D03*
%TO.P,J1,A8,SBU1*%
%TO.N,unconnected-(J1-PadA8)*%
X27250000Y-7695000D03*
D11*
%TO.P,J1,A9,VBUS*%
%TO.N,VBUS*%
X26050000Y-7695000D03*
%TO.P,J1,A12,GND*%
%TO.N,GND*%
X25250000Y-7695000D03*
%TO.P,J1,B1,GND*%
X25250000Y-7695000D03*
%TO.P,J1,B4,VBUS*%
%TO.N,VBUS*%
X26050000Y-7695000D03*
D12*
%TO.P,J1,B5,CC2*%
%TO.N,Net-(J1-PadB5)*%
X26750000Y-7695000D03*
%TO.P,J1,B6,D+*%
%TO.N,D+*%
X27750000Y-7695000D03*
%TO.P,J1,B7,D-*%
%TO.N,D-*%
X29250000Y-7695000D03*
%TO.P,J1,B8,SBU2*%
%TO.N,unconnected-(J1-PadB8)*%
X30250000Y-7695000D03*
D11*
%TO.P,J1,B9,VBUS*%
%TO.N,VBUS*%
X30950000Y-7695000D03*
%TO.P,J1,B12,GND*%
%TO.N,GND*%
X31750000Y-7695000D03*
D13*
%TO.P,J1,S1,SHIELD*%
%TO.N,Earth*%
X24180000Y-2600000D03*
X32820000Y-2600000D03*
D14*
X32820000Y-6780000D03*
X24180000Y-6780000D03*
%TD*%
D15*
%TO.P,R1,1*%
%TO.N,Net-(J1-PadA5)*%
X34700000Y-6425000D03*
%TO.P,R1,2*%
%TO.N,GND*%
X34700000Y-4775000D03*
%TD*%
D16*
%TO.P,F1,1*%
%TO.N,VBUS*%
X21700000Y-9425000D03*
%TO.P,F1,2*%
%TO.N,+5V*%
X18900000Y-9425000D03*
%TD*%
D17*
%TO.P,U1,1,IO1*%
%TO.N,D+*%
X19850000Y-5062500D03*
%TO.P,U1,2,VN*%
%TO.N,GND*%
X18900000Y-5062500D03*
%TO.P,U1,3,IO2*%
%TO.N,unconnected-(U1-Pad3)*%
X17950000Y-5062500D03*
%TO.P,U1,4,IO3*%
%TO.N,unconnected-(U1-Pad4)*%
X17950000Y-7337500D03*
%TO.P,U1,5,VP*%
%TO.N,+5V*%
X18900000Y-7337500D03*
%TO.P,U1,6,IO4*%
%TO.N,D-*%
X19850000Y-7337500D03*
%TD*%
D18*
%TO.P,J2,*%
%TO.N,*%
X15000000Y-5700000D03*
X9000000Y-5700000D03*
D19*
%TO.P,J2,1,Pin_1*%
%TO.N,+5V*%
X10500000Y-1700000D03*
%TO.P,J2,2,Pin_2*%
%TO.N,D-*%
X11500000Y-1700000D03*
%TO.P,J2,3,Pin_3*%
%TO.N,D+*%
X12500000Y-1700000D03*
%TO.P,J2,4,Pin_4*%
%TO.N,GND*%
X13500000Y-1700000D03*
%TD*%
D20*
%TO.P,C1,1*%
%TO.N,GND*%
X16925000Y-1600000D03*
%TO.P,C1,2*%
%TO.N,Earth*%
X19875000Y-1600000D03*
%TD*%
D21*
%TO.P,H2,1,1*%
%TO.N,Earth*%
X40500000Y-5800000D03*
X38200000Y-3500000D03*
X40500000Y-1200000D03*
X42126346Y-5126346D03*
X38873654Y-5126346D03*
X38873654Y-1873654D03*
X42126346Y-1873654D03*
D22*
X40500000Y-3500000D03*
D21*
X42800000Y-3500000D03*
%TD*%
D23*
%TO.P,R2,1*%
%TO.N,GND*%
X34700000Y-8250000D03*
%TO.P,R2,2*%
%TO.N,Net-(J1-PadB5)*%
X34700000Y-9900000D03*
%TD*%
D21*
%TO.P,H1,*%
%TO.N,*%
X1200000Y-3500000D03*
X5126346Y-1873654D03*
X5126346Y-5126346D03*
D22*
X3500000Y-3500000D03*
D21*
X3500000Y-5800000D03*
X3500000Y-1200000D03*
X1873654Y-5126346D03*
X1873654Y-1873654D03*
X5800000Y-3500000D03*
%TD*%
D24*
%TO.N,GND*%
X24900000Y-9000000D03*
X14400000Y-1700000D03*
X35700000Y-7250000D03*
X32100000Y-9000000D03*
X18900000Y-3825000D03*
%TO.N,Earth*%
X28500000Y-1100000D03*
%TO.N,VBUS*%
X30950000Y-9000000D03*
X26050000Y-9000000D03*
X23000000Y-9900000D03*
%TO.N,Net-(J1-PadB5)*%
X28900000Y-9650000D03*
X27100000Y-9100000D03*
%TD*%
D25*
%TO.N,GND*%
X25250000Y-7695000D02*
X25250000Y-8318629D01*
X16925000Y-1850000D02*
X18900000Y-3825000D01*
X25015685Y-8884315D02*
X24900000Y-9000000D01*
X35700000Y-7250000D02*
X34700000Y-8250000D01*
X35465685Y-5540685D02*
X34700000Y-4775000D01*
X35700000Y-7250000D02*
X35700000Y-6106371D01*
X31984315Y-8884315D02*
X32100000Y-9000000D01*
X13500000Y-1700000D02*
X14400000Y-1700000D01*
X31750000Y-7695000D02*
X31750000Y-8318629D01*
X18900000Y-5062500D02*
X18900000Y-3825000D01*
X21900000Y-3825000D02*
X18900000Y-3825000D01*
X31984315Y-8884315D02*
G75*
G02*
X31750000Y-8318629I565692J565689D01*
G01*
X25015685Y-8884315D02*
G75*
G03*
X25250000Y-8318629I-565692J565689D01*
G01*
X35700000Y-6106371D02*
G75*
G03*
X35465685Y-5540685I-799995J2D01*
G01*
%TO.N,Earth*%
X24180000Y-2600000D02*
X24180000Y-6780000D01*
D26*
X19875000Y-1100000D02*
X28500000Y-1100000D01*
X28500000Y-1100000D02*
X40500000Y-1100000D01*
X38685787Y-1685787D02*
X40500000Y-3500000D01*
D25*
X32820000Y-6780000D02*
X32820000Y-2600000D01*
X32820000Y-4800000D02*
X24180000Y-4800000D01*
D26*
X37271573Y-1100001D02*
G75*
G02*
X38685786Y-1685788I0J-1999999D01*
G01*
D25*
%TO.N,VBUS*%
X30950000Y-7695000D02*
X30950000Y-9000000D01*
X26050000Y-7695000D02*
X26050000Y-9000000D01*
X23000000Y-9900000D02*
X21900000Y-9900000D01*
X21900000Y-9900000D02*
X21700000Y-9700000D01*
%TO.N,+5V*%
X10500000Y-1700000D02*
X10500000Y-6250000D01*
X13000000Y-8750000D02*
X18900000Y-8750000D01*
X18900000Y-7237500D02*
X18900000Y-9400000D01*
X10500000Y-6250000D02*
G75*
G03*
X13000000Y-8750000I2500000J0D01*
G01*
D27*
%TO.N,Net-(J1-PadA5)*%
X30550000Y-9800000D02*
X33000000Y-9800000D01*
X33800000Y-9000000D02*
X33800000Y-7656371D01*
X29750000Y-7695000D02*
X29750000Y-9000000D01*
X34034315Y-7090685D02*
X34700000Y-6425000D01*
X30550000Y-9800000D02*
G75*
G02*
X29750000Y-9000000I1J800001D01*
G01*
X33000000Y-9800000D02*
G75*
G03*
X33800000Y-9000000I-1J800001D01*
G01*
X33800000Y-7656371D02*
G75*
G02*
X34034315Y-7090685I799995J2D01*
G01*
%TO.N,Net-(J1-PadB5)*%
X26984315Y-8984315D02*
X27100000Y-9100000D01*
X29098528Y-9848528D02*
X28900000Y-9650000D01*
X34700000Y-10200000D02*
X29947056Y-10200000D01*
X26750000Y-7695000D02*
X26750000Y-8418629D01*
X29098528Y-9848528D02*
G75*
G03*
X29947056Y-10200000I848530J848532D01*
G01*
X26750000Y-8418629D02*
G75*
G03*
X26984315Y-8984315I799995J-2D01*
G01*
%TO.N,D-*%
X24051472Y-9848528D02*
X21270837Y-7067893D01*
X28200000Y-8770000D02*
X28850000Y-8770000D01*
X15479999Y-7851572D02*
X13471572Y-7851572D01*
X28200000Y-7695000D02*
X28200000Y-8770000D01*
X19150000Y-6400000D02*
X17800000Y-6400000D01*
X11507107Y-1707107D02*
X11500000Y-1700000D01*
X17499480Y-6524479D02*
X16661979Y-7361980D01*
X20563730Y-6775000D02*
X19850000Y-6775000D01*
X11800000Y-6180000D02*
X11800000Y-2414214D01*
X19650000Y-7337500D02*
X19650000Y-6900000D01*
X29250000Y-8370000D02*
X29250000Y-7695000D01*
X27100000Y-10200000D02*
X24900000Y-10200000D01*
X28200000Y-8770000D02*
X28200000Y-9100000D01*
X19150000Y-6400000D02*
G75*
G02*
X19650000Y-6900000I-1J-500001D01*
G01*
X27100000Y-10200000D02*
G75*
G03*
X28200000Y-9100000I-2J1100002D01*
G01*
X15479999Y-7851572D02*
G75*
G03*
X16661979Y-7361980I-1J1671574D01*
G01*
X21270837Y-7067893D02*
G75*
G03*
X20563730Y-6775000I-707106J-707106D01*
G01*
X11800000Y-6180000D02*
G75*
G03*
X13471572Y-7851572I1671572J0D01*
G01*
X24051472Y-9848528D02*
G75*
G03*
X24900000Y-10200000I848530J848532D01*
G01*
X11507107Y-1707107D02*
G75*
G02*
X11800000Y-2414214I-707106J-707106D01*
G01*
X28850000Y-8770000D02*
G75*
G03*
X29250000Y-8370000I1J399999D01*
G01*
X17499480Y-6524479D02*
G75*
G02*
X17800000Y-6400000I300520J-300522D01*
G01*
%TO.N,D+*%
X27800000Y-7695000D02*
X27800000Y-9100000D01*
X24334315Y-9565686D02*
X20540075Y-5771446D01*
X12492893Y-1707107D02*
X12500000Y-1700000D01*
X28150000Y-6620000D02*
X28350000Y-6620000D01*
X15480000Y-7451572D02*
X13471572Y-7451572D01*
X20186522Y-5625000D02*
X19850000Y-5625000D01*
X19150000Y-6000000D02*
X17800000Y-6000000D01*
X19650000Y-5062500D02*
X19650000Y-5500000D01*
X12200000Y-6180000D02*
X12200000Y-2414214D01*
X28750000Y-7020000D02*
X28750000Y-7695000D01*
X27750000Y-7695000D02*
X27750000Y-7020000D01*
X27100000Y-9800000D02*
X24900000Y-9800000D01*
X17216637Y-6241637D02*
X16379137Y-7079137D01*
X12492893Y-1707107D02*
G75*
G03*
X12200000Y-2414214I707106J-707106D01*
G01*
X17216637Y-6241637D02*
G75*
G02*
X17800000Y-6000000I583365J-583368D01*
G01*
X20186522Y-5625001D02*
G75*
G02*
X20540075Y-5771446I0J-500001D01*
G01*
X27100000Y-9800000D02*
G75*
G03*
X27800000Y-9100000I1J699999D01*
G01*
X15480000Y-7451571D02*
G75*
G03*
X16379136Y-7079136I0J1271571D01*
G01*
X28150000Y-6620000D02*
G75*
G03*
X27750000Y-7020000I-1J-399999D01*
G01*
X28350000Y-6620000D02*
G75*
G02*
X28750000Y-7020000I1J-399999D01*
G01*
X24334315Y-9565686D02*
G75*
G03*
X24900000Y-9800000I565685J565686D01*
G01*
X13471572Y-7451572D02*
G75*
G02*
X12200000Y-6180000I1J1271573D01*
G01*
X19150000Y-6000000D02*
G75*
G03*
X19650000Y-5500000I-1J500001D01*
G01*
%TD*%
%TA.AperFunction,Conductor*%
%TO.N,Earth*%
G36*
X32262930Y-251703D02*
G01*
X32353438Y-263619D01*
X32403615Y-277064D01*
X32475794Y-306961D01*
X32520785Y-332936D01*
X32582772Y-380501D01*
X32619499Y-417228D01*
X32667064Y-479215D01*
X32693039Y-524206D01*
X32722936Y-596385D01*
X32736381Y-646562D01*
X32748297Y-737070D01*
X32750000Y-763046D01*
X32750000Y-1233626D01*
X32730293Y-1319969D01*
X32675074Y-1389210D01*
X32592376Y-1428277D01*
X32550553Y-1437167D01*
X32530827Y-1443576D01*
X32377050Y-1512042D01*
X32359082Y-1522416D01*
X32222908Y-1621352D01*
X32207485Y-1635239D01*
X32094854Y-1760328D01*
X32082657Y-1777117D01*
X31998500Y-1922882D01*
X31990056Y-1941845D01*
X31938040Y-2101932D01*
X31933728Y-2122218D01*
X31920544Y-2247661D01*
X31920000Y-2258040D01*
X31920000Y-2377577D01*
X31924330Y-2396547D01*
X31931500Y-2400000D01*
X32750000Y-2400000D01*
X32750000Y-2800000D01*
X31942423Y-2800000D01*
X31923453Y-2804330D01*
X31920000Y-2811500D01*
X31920000Y-2941960D01*
X31920544Y-2952339D01*
X31933728Y-3077782D01*
X31938040Y-3098068D01*
X31990056Y-3258155D01*
X31998500Y-3277118D01*
X32082657Y-3422883D01*
X32094854Y-3439672D01*
X32207487Y-3564764D01*
X32222903Y-3578644D01*
X32359085Y-3677587D01*
X32377047Y-3687957D01*
X32530827Y-3756424D01*
X32550553Y-3762833D01*
X32592376Y-3771723D01*
X32672734Y-3808952D01*
X32728982Y-3877360D01*
X32750000Y-3966374D01*
X32750000Y-4486954D01*
X32748297Y-4512930D01*
X32736381Y-4603438D01*
X32722936Y-4653615D01*
X32693039Y-4725794D01*
X32667064Y-4770785D01*
X32619499Y-4832772D01*
X32582772Y-4869499D01*
X32520785Y-4917064D01*
X32475794Y-4943039D01*
X32403615Y-4972936D01*
X32353438Y-4986381D01*
X32262930Y-4998297D01*
X32236954Y-5000000D01*
X24763046Y-5000000D01*
X24737070Y-4998297D01*
X24646562Y-4986381D01*
X24596385Y-4972936D01*
X24524206Y-4943039D01*
X24479215Y-4917064D01*
X24417228Y-4869499D01*
X24380501Y-4832772D01*
X24332936Y-4770785D01*
X24306961Y-4725794D01*
X24277064Y-4653615D01*
X24263619Y-4603438D01*
X24251703Y-4512930D01*
X24250000Y-4486954D01*
X24250000Y-3966374D01*
X24269707Y-3880031D01*
X24324926Y-3810790D01*
X24407624Y-3771723D01*
X24449447Y-3762833D01*
X24469173Y-3756424D01*
X24622950Y-3687958D01*
X24640918Y-3677584D01*
X24777092Y-3578648D01*
X24792515Y-3564761D01*
X24905146Y-3439672D01*
X24917343Y-3422883D01*
X25001500Y-3277118D01*
X25009944Y-3258155D01*
X25061960Y-3098068D01*
X25066272Y-3077782D01*
X25079456Y-2952339D01*
X25080000Y-2941960D01*
X25080000Y-2822423D01*
X25075670Y-2803453D01*
X25068500Y-2800000D01*
X24250000Y-2800000D01*
X24250000Y-2400000D01*
X25057577Y-2400000D01*
X25076547Y-2395670D01*
X25080000Y-2388500D01*
X25080000Y-2258040D01*
X25079456Y-2247661D01*
X25066272Y-2122218D01*
X25061960Y-2101932D01*
X25009944Y-1941845D01*
X25001500Y-1922882D01*
X24917343Y-1777117D01*
X24905146Y-1760328D01*
X24792513Y-1635236D01*
X24777097Y-1621356D01*
X24640915Y-1522413D01*
X24622953Y-1512043D01*
X24469173Y-1443576D01*
X24449447Y-1437167D01*
X24407624Y-1428277D01*
X24327266Y-1391048D01*
X24271018Y-1322640D01*
X24250000Y-1233626D01*
X24250000Y-763046D01*
X24251703Y-737070D01*
X24263619Y-646562D01*
X24277064Y-596385D01*
X24306961Y-524206D01*
X24332936Y-479215D01*
X24380501Y-417228D01*
X24417228Y-380501D01*
X24479215Y-332936D01*
X24524206Y-306961D01*
X24596385Y-277064D01*
X24646562Y-263619D01*
X24737070Y-251703D01*
X24763046Y-250000D01*
X32236954Y-250000D01*
X32262930Y-251703D01*
G37*
%TD.AperFunction*%
%TD*%
M02*
